<?xml version="1.0" encoding="utf-8"?>
<svg id="svg10352" enable-background="new 0 0 784.08 612.25" viewBox="0 0 784.08 612.25" height="612.25px" width="784.08px" y="0px" x="0px" version="1.1" xmlns="http://www.w3.org/2000/svg" xmlns:xlink="http://www.w3.org/1999/xlink">
  <defs id="defs11424">
    <symbol id="printer" viewBox="0 0 11.148 10.29">
      <path id="path-1" d="M 82.687 551.591 C 82.687 551.705 82.586 551.806 82.472 551.806 L 80.972 551.806 L 80.972 552.878 C 80.972 553.232 80.684 553.521 80.329 553.521 L 73.897 553.521 C 73.543 553.521 73.254 553.233 73.254 552.878 L 73.254 551.806 L 71.754 551.806 C 71.64 551.806 71.539 551.705 71.539 551.591 L 71.539 548.805 C 71.539 548.102 72.122 547.519 72.825 547.519 L 73.254 547.519 L 73.254 543.874 C 73.254 543.52 73.542 543.231 73.897 543.231 L 78.399 543.231 C 78.754 543.231 79.243 543.432 79.498 543.686 L 80.517 544.705 C 80.771 544.96 80.972 545.448 80.972 545.804 L 80.972 547.519 L 81.4 547.519 C 82.103 547.519 82.686 548.102 82.686 548.805 L 82.686 551.591 Z M 80.114 548.376 L 80.114 545.804 L 79.042 545.804 C 78.688 545.804 78.399 545.516 78.399 545.161 L 78.399 544.089 L 74.112 544.089 L 74.112 548.376 L 80.114 548.376 Z M 80.114 552.663 L 80.114 550.948 L 74.112 550.948 L 74.112 552.663 L 80.114 552.663 Z M 81.4 548.376 C 81.166 548.376 80.971 548.57 80.971 548.805 C 80.971 549.04 81.165 549.234 81.4 549.234 C 81.635 549.234 81.829 549.04 81.829 548.805 C 81.829 548.57 81.635 548.376 81.4 548.376 Z" transform="matrix(1, 0, 0, 1, -71.53900146484375, -543.2310180664062)"/>
    </symbol>
    <symbol id="fountain" viewBox="0 0 10.524 12.73">
      <path id="path-2" d="M 193.388 281.503 L 193.388 275.341 L 195.69 274.076 L 195.69 275.235 C 195.69 275.466 195.69 275.466 195.829 275.644 L 197.15 277.14 C 197.273 277.283 197.414 277.356 197.575 277.356 C 197.913 277.356 198.197 277.05 198.197 276.766 C 198.197 276.568 198.13 276.356 197.987 276.213 L 196.864 275.002 L 196.864 272.528 C 196.864 272.046 196.313 271.442 195.69 271.442 C 195.386 271.442 195.046 271.527 194.743 271.689 L 192.412 272.991 C 191.929 273.239 191.414 273.542 191.414 274.271 L 191.414 281.539 C 191.414 282.248 191.752 282.677 192.392 282.677 C 193.05 282.678 193.388 282.233 193.388 281.503 M 199.391 271.265 C 199.391 270.552 198.804 269.947 198.09 269.947 C 197.399 269.947 196.81 270.535 196.81 271.249 C 196.81 271.976 197.414 272.581 198.11 272.581 C 198.804 272.58 199.391 271.956 199.391 271.265 M 197.309 274.611 C 197.309 274.789 197.342 274.894 197.507 275.091 L 199.893 277.797 L 201.938 277.797 L 201.938 274.148 L 197.898 274.148 C 197.522 274.148 197.309 274.309 197.309 274.611 M 198.879 273.829 C 198.879 273.738 198.819 273.684 198.733 273.684 C 198.627 273.684 198.555 273.775 198.555 273.844 C 198.555 273.951 198.626 274.005 198.713 274.005 C 198.804 274.006 198.879 273.972 198.879 273.829 M 198.891 273.366 C 198.891 273.273 198.841 273.202 198.752 273.202 C 198.646 273.202 198.575 273.292 198.575 273.366 C 198.575 273.471 198.659 273.526 198.752 273.526 C 198.841 273.526 198.891 273.488 198.891 273.366 M 199.053 272.883 C 199.053 272.794 199 272.739 198.91 272.739 C 198.804 272.739 198.733 272.828 198.733 272.903 C 198.733 273.007 198.819 273.06 198.91 273.06 C 199 273.061 199.053 273.008 199.053 272.883 M 199.319 273.347 C 199.319 273.258 199.27 273.202 199.177 273.202 C 199.086 273.202 198.999 273.273 198.999 273.366 C 198.999 273.453 199.086 273.526 199.177 273.526 C 199.271 273.526 199.319 273.472 199.319 273.347 M 199.319 273.829 C 199.319 273.738 199.27 273.684 199.177 273.684 C 199.086 273.684 198.999 273.754 198.999 273.844 C 198.999 273.951 199.067 274.005 199.159 274.005 C 199.271 274.006 199.319 273.952 199.319 273.829 M 199.409 272.563 C 199.409 272.475 199.319 272.385 199.214 272.385 C 199.106 272.385 199.037 272.475 199.037 272.58 C 199.037 272.67 199.123 272.759 199.214 272.759 C 199.3 272.759 199.409 272.67 199.409 272.563 M 199.605 272.973 C 199.605 272.883 199.501 272.794 199.409 272.794 C 199.3 272.794 199.232 272.867 199.232 272.992 C 199.232 273.08 199.299 273.17 199.409 273.17 C 199.502 273.17 199.605 273.08 199.605 272.973 M 199.837 272.419 C 199.837 272.333 199.749 272.244 199.644 272.244 C 199.535 272.244 199.465 272.316 199.465 272.438 C 199.465 272.529 199.55 272.616 199.661 272.616 C 199.749 272.616 199.837 272.529 199.837 272.419 M 200.033 272.81 C 200.033 272.726 199.925 272.636 199.837 272.636 C 199.749 272.636 199.661 272.69 199.661 272.81 C 199.661 272.92 199.749 273.008 199.856 273.008 C 199.925 273.008 200.033 272.92 200.033 272.81 M 200.317 272.403 C 200.317 272.297 200.228 272.205 200.124 272.205 C 200.033 272.205 199.925 272.278 199.925 272.403 C 199.925 272.529 200.065 272.596 200.124 272.596 C 200.246 272.597 200.317 272.493 200.317 272.403 M 200.46 272.973 C 200.46 272.883 200.356 272.794 200.268 272.794 C 200.157 272.794 200.088 272.867 200.088 272.973 C 200.088 273.08 200.174 273.17 200.283 273.17 C 200.356 273.17 200.46 273.08 200.46 272.973 M 200.761 272.616 C 200.761 272.512 200.674 272.419 200.565 272.419 C 200.478 272.419 200.372 272.493 200.372 272.616 C 200.372 272.739 200.517 272.809 200.565 272.809 C 200.692 272.81 200.761 272.707 200.761 272.616 M 200.779 273.347 C 200.779 273.241 200.692 273.152 200.584 273.152 C 200.496 273.152 200.388 273.22 200.388 273.347 C 200.388 273.472 200.528 273.543 200.584 273.543 C 200.709 273.543 200.779 273.434 200.779 273.347 M 201.14 272.973 C 201.14 272.868 201.05 272.779 200.941 272.779 C 200.851 272.779 200.749 272.849 200.749 272.973 C 200.749 273.097 200.89 273.17 200.941 273.17 C 201.065 273.17 201.14 273.061 201.14 272.973" transform="matrix(1, 0, 0, 1, -191.41400146484375, -269.9469909667969)"/>
    </symbol>
    <symbol id="computer" viewBox="0 0 12.862 11.146">
      <path id="path-3" d="M 83.544 554.063 C 83.544 554.652 83.062 555.134 82.472 555.134 L 78.828 555.134 C 78.828 555.703 79.257 556.186 79.257 556.42 C 79.257 556.654 79.063 556.849 78.828 556.849 L 75.398 556.849 C 75.164 556.849 74.969 556.655 74.969 556.42 C 74.969 556.172 75.398 555.717 75.398 555.134 L 71.754 555.134 C 71.164 555.134 70.682 554.652 70.682 554.063 L 70.682 546.774 C 70.682 546.185 71.164 545.703 71.754 545.703 L 82.471 545.703 C 83.061 545.703 83.543 546.185 83.543 546.774 L 83.543 554.063 Z M 82.687 546.773 C 82.687 546.66 82.586 546.559 82.472 546.559 L 71.755 546.559 C 71.641 546.559 71.54 546.66 71.54 546.773 L 71.54 552.347 C 71.54 552.46 71.641 552.561 71.755 552.561 L 82.472 552.561 C 82.586 552.561 82.687 552.46 82.687 552.347 L 82.687 546.773 Z" transform="matrix(1, 0, 0, 1, -70.68199920654297, -545.7030029296875)"/>
    </symbol>
    <symbol id="screen" viewBox="0 0 12.005 8.575">
      <path d="M 115.585 226.301 C 115.585 226.476 115.478 226.63 115.323 226.697 C 115.27 226.718 115.21 226.731 115.156 226.731 C 115.042 226.731 114.935 226.69 114.854 226.603 L 112.155 223.904 L 112.155 225.016 C 112.155 226.08 111.291 226.945 110.226 226.945 L 105.509 226.945 C 104.445 226.945 103.58 226.081 103.58 225.016 L 103.58 220.299 C 103.58 219.235 104.444 218.37 105.509 218.37 L 110.226 218.37 C 111.29 218.37 112.155 219.234 112.155 220.299 L 112.155 221.404 L 114.854 218.712 C 114.935 218.625 115.042 218.584 115.156 218.584 C 115.21 218.584 115.27 218.598 115.323 218.618 C 115.477 218.684 115.585 218.839 115.585 219.014 L 115.585 226.301 Z" id="path-4" transform="matrix(1, 0, 0, 1, -103.58000183105469, -218.3699951171875)"/>
    </symbol>
    <symbol id="mensroom" viewBox="0 0 22.2031 26.7594">
      <g id="g-1" transform="matrix(1, 0, 0, 1, -180.5, -359.9749755859375)">
        <text style="font-size: 10px; font-family: Helvetica; writing-mode: lr-tb; font-style: normal; font-stretch: normal; text-anchor: start; font-variant: normal; font-weight: normal; line-height: 125%; text-align: start; white-space: pre;" id="text-1" font-size="10" x="180.5098" y="384.51859">MEN</text>
        <path id="path-5" d="m 190.296,367.444 0,-2.995 0.309,0 0,8.875 c 0,0.491 0.252,0.777 0.647,0.777 0.397,0 0.65,-0.286 0.65,-0.777 l 0,-5.161 0.325,0 0,5.161 c 0,0.491 0.253,0.761 0.649,0.761 0.396,0 0.649,-0.27 0.649,-0.761 l 0,-8.875 0.307,0 0,2.995 c 0,0.467 0.163,0.699 0.487,0.699 0.325,0 0.487,-0.232 0.487,-0.699 l 0,-3.142 c 0,-1.115 -0.632,-1.732 -1.732,-1.732 l -2.021,0 c -1.1,0 -1.731,0.617 -1.731,1.732 l 0,3.142 c 0,0.467 0.161,0.699 0.487,0.699 0.343,0.001 0.487,-0.232 0.487,-0.699 m 2.942,-6.316 c 0,-0.635 -0.542,-1.153 -1.155,-1.153 -0.612,0 -1.156,0.519 -1.156,1.153 0,0.631 0.562,1.155 1.156,1.155 0.613,0 1.155,-0.524 1.155,-1.155"/>
      </g>
    </symbol>
    <symbol id="womensroom" viewBox="0 0 39.4063 26.7594">
      <g id="g-2" transform="matrix(1, 0, 0, 1, -211.84375, -335.9750061035156)">
        <text style="font-size: 10px; font-family: Helvetica; writing-mode: lr-tb; font-style: normal; font-stretch: normal; text-anchor: start; font-variant: normal; font-weight: normal; line-height: 125%; text-align: start; white-space: pre;" id="text-2" font-size="10" x="211.84669" y="360.51859">WOMEN</text>
        <path id="path-6" d="m 230.05,340.013 -0.795,2.796 c 0,0.416 0.057,0.72 0.398,0.72 0.306,0 0.432,-0.195 0.503,-0.396 l 0.851,-2.99 0.234,0 -1.39,5.374 1.39,0 0,3.915 c 0,0.416 0.217,0.651 0.522,0.651 0.307,0 0.523,-0.235 0.523,-0.651 l 0,-3.915 0.327,0 0,3.915 c 0,0.416 0.216,0.651 0.522,0.651 0.306,0 0.522,-0.235 0.522,-0.651 l 0,-3.915 1.39,0 -1.551,-5.36 0.234,0 0.92,2.977 c 0.073,0.256 0.287,0.396 0.505,0.396 0.271,0 0.415,-0.195 0.415,-0.45 0,-0.089 -0.019,-0.178 -0.033,-0.27 l -0.832,-2.796 c -0.236,-0.846 -0.576,-1.443 -1.587,-1.443 l -1.482,0 c -1.171,-0.002 -1.407,0.811 -1.586,1.442 m 3.501,-2.889 c 0,-0.631 -0.54,-1.149 -1.155,-1.149 -0.613,0 -1.154,0.519 -1.154,1.149 0,0.634 0.559,1.156 1.154,1.156 0.615,0 1.155,-0.522 1.155,-1.156"/>
      </g>
    </symbol>
    <symbol id="emergency-exit" viewBox="0 0 64.325 34.178">
      <g transform="matrix(1, 0, 0, 1, -654.9149780273438, -223.4149932861328)">
        <rect x="654.915" y="223.415" width="64.325" height="34.178" style="fill: rgb(255, 0, 0);"/>
        <text style="fill: rgb(255, 255, 255); font-size: 24px; white-space: pre;" x="660.417" y="248.701">EXIT</text>
      </g>
    </symbol>
  </defs>
  <path style="opacity: 1; fill: rgb(242, 243, 244); stroke-opacity: 1; fill-opacity: 1;" d="m 59.439453,90.832031 c -43.520338,0.01625 -49.310547,46.988279 -49.310547,46.988279 -0.2428516,43.14419 0.941408,129.42188 0.941406,129.42188 l 0.341797,265.99219 178.705081,0.4707 6.08203,0.0117 27.18555,-12.85157 c 0,0 21.47124,42.03711 65.80859,42.03711 50.59588,0 69.43945,-42.91406 69.43945,-42.91406 l 28.02735,13.90039 c 0,0 301.27872,0.22462 391.67578,0.18164 0,0 -22.68128,-81.00706 -31.73828,-114.41406 -9.058,-33.406 -42.31641,-45.50391 -42.31641,-45.50391 L 579.23047,318.93359 c 0,0 -185.3697,-83.64388 -352.40039,-158.33593 l -9.70117,-4.36328 c 0,0 -74.58855,-32.64993 -142.935551,-63.794927 C 68.848391,91.332172 63.941557,90.830351 59.439453,90.832031 Z M 290.87305,439.43164 a 48.881672,48.881672 0 0 1 48.88086,48.88086 48.881672,48.881672 0 0 1 -48.88086,48.88281 48.881672,48.881672 0 0 1 -48.88282,-48.88281 48.881672,48.881672 0 0 1 48.88282,-48.88086 z" id="background">
    <title id="title6456">Background</title>
  </path>
  <path style="fill: rgb(255, 247, 231);" d="m 124.63867,114.71484 -30.570311,61.55078 8.763671,10.58204 66.15039,29.3164 -13.40551,30.61893 -31.59449,20.3381 -113.130858,0.1211 -0.304687,242.73047 25.972656,0 0,23.8164 89.949219,0.36719 0.1543,-24.57422 63.79687,0 -0.0684,24.48828 6.13672,0 c 0,0 24.67153,-11.9692 27.14453,-13.1582 39.907,63.088 108.97272,48.33786 134.63672,-0.24414 24.903,12.046 28.33399,13.39553 28.33399,13.39453 l 5.09765,0 -0.48828,-55.65234 c -1.895,-20.184 -9.02044,-37.10989 -19.52344,-50.58789 l 0.2793,1.48242 c -4.43931,-6.13551 -9.46241,-11.61142 -14.93945,-16.41407 5.37554,4.38036 10.31132,9.35384 14.6582,14.93165 l -0.21094,-1.11524 36.20117,-24.3125 112.25586,49.50977 30.19727,-67.41797 -353.57223,-157.30078 30.27149,-66.58789 z M 165.93164,292.31055 216.12695,314.9375 165.78906,348 Z m 0.10742,107.93945 38.73438,0.29688 -14.34961,15.99804 0.39648,1.46094 -4.14062,6.0918 -2.58985,-1.22852 -10.26562,21.6543 2.76953,1.3125 -2.20117,7.39453 -1.12305,-0.47266 -4.06641,23.61524 21.3418,4.27539 -0.0625,6.39648 c 0.0298,-0.39869 0.0765,-0.78356 0.10938,-1.17969 -0.0348,0.3938 -0.0755,0.78345 -0.10742,1.17969 l -0.002,0 -24.74414,0.33008 0.30078,-87.125 z m 125.22266,38.67383 c 27.152,0 49.66992,22.56176 49.66992,49.25976 0,7.629 -1.79705,14.84472 -4.99805,21.26172 l -11.70507,-5.49609 c 0,0 -8.5678,21.42505 -32.9668,20.99805 -24.608,-0.43 -33.4082,-20.94141 -33.4082,-20.94141 l -10.95704,5.92969 c -3.118,-6.349 -4.89257,-13.95457 -4.89257,-21.47657 0,-28.208 22.10581,-49.53515 49.25781,-49.53515 z m -96.56055,23.23633 c -1.80217,6.72836 -3.13043,13.92057 -3.91406,21.59179 0.75148,-7.68545 2.07476,-14.88332 3.91406,-21.59179 z" id="accessible">
    <title id="title6463">Patron-accessible area</title>
  </path>
  <g style="">
    <title>Group Study Rooms</title>
    <g style="">
      <title>Group Study Room 301</title>
      <path style="fill:#c1d2ed;fill-opacity:1" id="path10641" d="M 370.668 426.927 C 370.668 426.927 365.821 419.508 357.008 412.483 C 348.195 405.458 343.919 403.087 343.919 403.087 L 354.637 378.956 L 407.68 402.358 L 370.668 426.927 Z"/>
      <text style="font-size: 10px; font-family: Helvetica; writing-mode: lr; font-style: normal; font-stretch: normal; text-anchor: start; font-variant: normal; font-weight: normal; line-height: 125%; text-align: start; white-space: pre;" id="text10643" font-size="10" x="359.991" y="405.397"><tspan id="tspan6068" style="font-size: 10px; word-spacing: 0px;">301</tspan></text>
    </g>
    <path id="path6071" d="M 89.301 267.064 L 89.301 230.389 L 122.688 230.389 L 139.887 256.946 L 123.194 267.57 Z" style="fill: rgb(193, 210, 237); fill-opacity: 1; fill-rule: evenodd; stroke: none; stroke-width: 1px; stroke-linecap: butt; stroke-linejoin: miter; stroke-opacity: 1;">
      <title>Group Study Room 322A</title>
    </path>
  </g>
  <g style="">
    <title>Interior Walls</title>
    <g style="">
      <title>Mezzanine Stairs</title>
      <line style="fill:none;stroke:#939598;stroke-width:0.57800001" id="line10881" y2="350.014" x2="389.78" y1="345.272" x1="379.099"/>
      <line style="fill:none;stroke:#939598;stroke-width:0.57800001" id="line10883" y2="355.315" x2="387.374" y1="350.574" x1="376.693"/>
      <line style="fill:none;stroke:#939598;stroke-width:0.57800001" id="line10885" y2="360.617" x2="384.97" y1="355.876" x1="374.288"/>
      <line style="fill:none;stroke:#939598;stroke-width:0.57800001" id="line10887" y2="365.92" x2="382.565" y1="361.179" x1="371.883"/>
      <line style="fill:none;stroke:#939598;stroke-width:0.57800001" id="line10889" y2="371.3" x2="380.427" y1="366.559" x1="369.745"/>
      <line style="fill:none;stroke:#939598;stroke-width:0.57800001" id="line10891" y2="376.653" x2="378.046" y1="371.911" x1="367.364"/>
      <path style="fill:none;stroke:#939598;stroke-width:1.15699995" id="path10893" d="M 394.017 340.2 C 389.412 350.587 377.176 378.171 373.197 387.135"/>
      <path style="fill:none;stroke:#939598;stroke-width:1.15699995" id="path10895" d="M 362.755 382.344 C 368.122 370.252 368.193 370.097 383.497 335.613"/>
    </g>
    <g>
      <title>Elevators</title>
      <path style="fill:none" id="path10612" d="M 201.944 487.166 C 202.141 466.059 217.058 431.258 232.241 418.826"/>
      <path style="fill:none" id="path11177" d="M 245.517 399.81 L 240.343 391.074 C 240.343 391.074 236.994 393.59 236.572 396.999 C 236.134 400.523 238.056 404.22 238.056 404.22"/>
      <path style="fill:none" id="path11193" d="M 191.175 507.41 L 182.123 507.289 C 182.123 507.289 182.62 503.126 185.274 501.063 C 188.02 498.924 191.979 498.788 191.979 498.788"/>
      <path style="fill:none" id="path11195" d="M 191.257 490.093 L 182.142 490.084 C 182.142 490.084 182.589 494.249 185.218 496.347 C 187.94 498.516 191.964 498.743 191.964 498.743"/>
      <polyline style="fill:none;stroke:#939598;stroke-width:1.15699995" id="polyline10905" points="195.88 454.979 173.826 444.523 184.091 422.869 206.417 433.456"/>
      <polyline style="fill: none; stroke: rgb(147, 149, 152); stroke-width: 1.157;" id="polyline10907" points="190.251 479.999 169.204 476.374 173.271 452.757 195.253 456.545"/>
      <polyline style="fill:none;stroke:#939598;stroke-width:1.15699995" id="polyline10909" points="207.308 431.949 190.293 416.69 206.295 398.851 223.241 414.048"/>
      <path style="fill:none;stroke:#939598;stroke-width:1.15699995" id="path10911" d="M 186.681 424.151 C 188.104 421.864 189.615 419.636 191.208 417.475"/>
      <path style="fill:none;stroke:#939598;stroke-width:1.15699995" id="path10913" d="M 174.394 453.229 C 175.014 450.728 175.727 448.26 176.529 445.835"/>
      <rect style="fill:none;stroke:#939598;stroke-width:0.79403269" id="rect10917" height="17.032" width="17.981" transform="matrix(0.411383, -0.911463, 0.911463, 0.411383, 0, 0)" y="344.221" x="-331.091"/>
      <rect style="fill:none;stroke:#939598;stroke-width:0.80296969" id="rect10919" height="14.487" width="17.982" transform="matrix(0.662425, -0.749128, 0.749128, 0.662425, 0, 0)" y="422.022" x="-184.017"/>
      <rect style="fill:none;stroke:#939598;stroke-width:0.81001234" id="rect10921" height="14.757" width="17.981" transform="matrix(0.168597, -0.985685, 0.985685, 0.168597, 0, 0)" y="250.209" x="-437.783"/>
    </g>
    <g>
      <title>Emergency Exit</title>
      <path style="fill:none" id="path11087" d="M 112.314 487.375 L 112.314 460.838 L 112.314 487.375 Z"/>
      <path style="fill:none" id="path11091" d="M 117.81 487.375 L 117.81 460.838 L 117.81 487.375 Z"/>
      <path style="fill:none" id="path11095" d="M 123.306 487.375 L 123.306 460.838 L 123.306 487.375 Z"/>
      <path style="fill:none" id="path11099" d="M 128.801 487.375 L 128.801 460.838 L 128.801 487.375 Z"/>
      <path style="fill:none" id="path11103" d="M 134.296 487.375 L 134.296 460.838 L 134.296 487.375 Z"/>
      <path style="fill:none" id="path11107" d="M 111.157 474.504 L 136.754 474.504 L 111.157 474.504 Z"/>
      <path style="fill:none" id="path11117" d="M 90.587 463.215 L 100.739 463.264 C 100.739 463.264 100.258 467.43 97.53 469.513 C 94.712 471.673 90.547 471.866 90.547 471.866"/>
      <polyline style="fill:none;stroke:#939598;stroke-width:1.15699995" id="polyline10901" points="91.186 471.808 91.101 487.446 150.565 487.446"/>
      <polyline style="fill:none;stroke:#939598;stroke-width:1.15699995" id="polyline10903" points="150.041 487.512 150.041 460.872 91.245 460.872 91.232 463.218"/>
      <line style="fill:none;stroke:#939598;stroke-width:0.57800001" id="line11089" y2="487.375" x2="112.314" y1="460.838" x1="112.314"/>
      <line style="fill:none;stroke:#939598;stroke-width:0.57800001" id="line11093" y2="487.375" x2="117.81" y1="460.838" x1="117.81"/>
      <line style="fill:none;stroke:#939598;stroke-width:0.57800001" id="line11097" y2="487.375" x2="123.305" y1="460.838" x1="123.305"/>
      <line style="fill:none;stroke:#939598;stroke-width:0.57800001" id="line11101" y2="487.375" x2="128.8" y1="460.838" x1="128.8"/>
      <line style="fill:none;stroke:#939598;stroke-width:0.57800001" id="line11105" y2="487.375" x2="134.296" y1="460.838" x1="134.296"/>
      <line style="fill:none;stroke:#939598;stroke-width:1.15699995" id="line11109" y2="474.504" x2="136.755" y1="474.504" x1="111.157"/>
    </g>
    <polyline style="fill:none;stroke:#939598;stroke-width:1.15699995" id="polyline11151" points="196.173 227.015 550.466 383.736 547.902 389.706"/>
    <line style="fill:none;stroke:#939598;stroke-width:1.15699995" id="line10879" y2="452.025" x2="520.207" y1="378.517" x1="354.595"/>
    <path style="fill:none;stroke:#939598;stroke-width:1.15699995" id="path10897" d="M 165.413 292.08 L 332.559 366.49 C 332.559 366.49 326.98 379.151 320.94 392.76"/>
    <polyline style="fill:none;stroke:#939598;stroke-width:1.15699995" id="polyline10899" points="189.843 487.446 165.739 487.446 165.739 292.311"/>
    <line style="fill:none;stroke:#939598;stroke-width:1.15699995" id="line10931" y2="348.335" x2="164.722" y1="314.938" x1="216.126"/>
    <line style="fill:none;stroke:#939598;stroke-width:1.15699995" id="line11161" y2="388.229" x2="225.814" y1="332.197" x1="189.954"/>
    <path style="fill:none;stroke:#939598;stroke-width:1.15699995" id="path10939" d="M 294.948 388.323 C 304.085 388.669 312.91 390.233 321.264 392.857"/>
    <path style="fill:none;stroke:#939598;stroke-width:1.15699995" id="path10941" d="M 258.548 393.656 C 267.332 390.643 276.662 388.812 286.347 388.36"/>
    <path style="fill:none;stroke:#939598;stroke-width:1.15699995" id="path10945" d="M 190.479 488.036 C 190.523 483.514 190.376 478.736 191.059 474.379 L 188.229 473.882 L 189.66 463.662 L 193.133 464.264 C 194.482 459.051 196.207 454.201 198.326 449.349 L 194.729 447.713 L 198.716 438.881 L 202.638 440.637 C 205.341 435.782 208.523 431.057 211.956 426.73 L 208.659 423.847 L 213.968 417.845 L 217.198 420.638 C 223.251 414.098 230.167 408.352 237.761 403.586"/>
    <path style="fill:none;stroke:#939598;stroke-width:1.19299996" id="path11075" d="M 261.384 392.092 L 254.829 371.917 C 257.099 366.805 270.052 338.656 270.052 338.656"/>
    <line style="fill:none;stroke:#939598;stroke-width:1.15699995" id="line11165" y2="371.916" x2="254.829" y1="374.242" x1="249.819"/>
    <line style="fill:none;stroke:#939598;stroke-width:1.15699995" id="line11167" y2="377.861" x2="242.026" y1="385.993" x1="224.517"/>
    <line style="fill:none;stroke:#939598;stroke-width:1.15699995" id="line11171" y2="397.707" x2="248.233" y1="378.329" x1="239.847"/>
    <line style="fill:none;stroke:#939598;stroke-width:1.15699995" id="line10923" y2="400.19" x2="205.232" y1="400.19" x1="165.317"/>
    <path style="fill:none;stroke:#939598;stroke-width:1.15699995" id="path10943" d="M 245.233 399.331 C 246.952 398.446 248.699 397.61 250.473 396.823"/>
    <line style="fill:none;stroke:#939598;stroke-width:1.19299996" id="line11077" y2="393.891" x2="348.255" y1="390.198" x1="340.095"/>
    <line style="fill:none;stroke:#939598;stroke-width:1.19299996" id="line11079" y2="386.66" x2="332.274" y1="383.482" x1="325.252"/>
    <line style="fill:none;stroke:#939598;stroke-width:1.15699995" id="line11159" y2="404.504" x2="236.23" y1="395.462" x1="230.444"/>
    <path style="fill:none;stroke:#939598;stroke-width:1.15699995" d="M 118.935 126.405 L 124.459 114.903 L 226.652 160.465 L 193.606 232.219 M 188.922 242.468 L 166.286 291.994" id="line11231"/>
    <path id="path5608" d="M 112.287 137.627 L 104.193 134.086 C 104.193 134.086 102.814 124.438 96.491 115.796 C 90.167 107.154 79.911 102.723 79.911 102.723 L 82.82 96.652" style="fill:none;fill-rule:evenodd;stroke:#93958d;stroke-width:1px;stroke-linecap:butt;stroke-linejoin:miter;stroke-opacity:1"/>
    <path style="fill:none;stroke:#939598;stroke-width:1.15699995" d="M 150.078 250.288 L 155.487 246.875 L 168.985 216.023 L 102.918 186.567 L 94.019 175.023 L 113.509 135.835" id="polyline10835"/>
    <path style="fill:#fff7e7;fill-opacity:1;fill-rule:evenodd;stroke:#929598;stroke-width:1.15699995;stroke-linecap:butt;stroke-linejoin:miter;stroke-miterlimit:4;stroke-dasharray:none;stroke-opacity:1" d="M 10.876 267.16 L 53.319 267.16" id="path14535"/>
    <line style="fill:none;stroke:#939598;stroke-width:1.15699995" id="line10837" y2="254.861" x2="142.829" y1="259.017" x1="136.243"/>
    <path id="path5278" d="M 62.622 267.16 L 94.892 267.16 L 123.095 267.313 L 128.978 263.601" style="fill:none;fill-opacity:1;fill-rule:evenodd;stroke:#929598;stroke-width:1.15699995;stroke-linecap:butt;stroke-linejoin:miter;stroke-miterlimit:4;stroke-dasharray:none;stroke-opacity:1"/>
    <path id="path4999" d="M 139.529 257.069 L 122.116 230.62 L 89.099 230.577" style="fill:none;stroke:#929589;stroke-width:1.15699995;stroke-miterlimit:4;stroke-dasharray:none;stroke-opacity:1"/>
    <line style="fill:none;stroke:#939598;stroke-width:1.15699995" id="line11189" y2="509.493" x2="190.821" y1="509.493" x1="138.002"/>
    <polyline style="fill:none;stroke:#939598;stroke-width:1.15699995" id="polyline11191" points="126.469 533.934 126.469 509.493 129.399 509.493"/>
    <line style="fill:none;stroke:#939598;stroke-width:1.15699995;stroke-miterlimit:4;stroke-dasharray:none" id="line11227" y2="266.524" x2="10.924" y1="534.207" x1="10.924"/>
    <path id="path6059" d="M 89.254 267.064 L 89.254 230.136" style="fill:none;fill-rule:evenodd;stroke:#939598;stroke-width:1;stroke-linecap:butt;stroke-linejoin:miter;stroke-miterlimit:4;stroke-dasharray:none;stroke-opacity:1"/>
    <path style="fill:none;stroke:#939598" id="path10845" d="M 344.097 403.372 C 346.39 398.206 355.019 378.79 355.019 378.79"/>
    <path style="fill:none;stroke:#939598;stroke-width:1.15699995" id="path10935" d="M 368.245 423.718 C 382.88 441.19 391.69 463.705 391.69 488.279 C 391.69 488.496 391.689 488.713 391.686 488.929 L 391.686 491.442"/>
    <path style="fill:none;stroke:#939598;stroke-width:1.15699995" id="path10937" d="M 344.349 402.913 C 351.429 407.34 357.918 412.623 363.672 418.617"/>
    <line style="fill:none;stroke:#939598" id="line11217" y2="427.005" x2="370.874" y1="402.39" x1="408.38"/>
    <path style="fill:none;stroke:#939598;stroke-width:1.15699995" id="path10841" d="M 542.035 402.768 C 534.244 420.332 526.811 437.084 520.181 452.014"/>
    <path id="line11071" d="M 358.27 520.147 L 386.353 533.933 L 391.651 534 L 391.793 507.283" style="fill:none;stroke:#939598;stroke-width:1.15699995"/>
    <path style="fill:none;stroke:#939598;stroke-width:1.15699995" d="M 190.679 507.403 L 190.679 534.158 L 195.524 534.157 L 223.633 520.668" id="line11185"/>
    <polyline style="fill:none;stroke:#939598;stroke-width:1.15699995" id="polyline11199" points="33.855 509.88 36.519 509.88 36.519 533.79"/>
    <line style="fill:none;stroke:#939598;stroke-width:1.15699995" id="line11229" y2="534.07" x2="11.024" y1="534.07" x1="190.685"/>
    <line style="fill:none;stroke:#939598;stroke-width:1.15699995" id="line10915" y2="487.499" x2="190.679" y1="487.499" x1="164.924"/>
    <line style="fill:none;stroke:#939598;stroke-width:1.15699995" id="line11201" y2="509.88" x2="25.27" y1="509.88" x1="10.489"/>
    <path style="opacity:0.2;fill:none;stroke:#93958d;stroke-width:1.157;stroke-opacity:1;stroke-miterlimit:4;stroke-dasharray:none" id="path10843" d="M 579.229 318.934 C 568.656 342.754 560.82 360.394 550.132 384.487"/>
    <line style="fill:none;stroke:#939598;stroke-width:1.15699995" id="line11187" y2="490.092" x2="190.679" y1="487.499" x1="190.679"/>
    <path d="M 124.296 114.769 L 82.439 96.066" style="stroke: rgb(147, 149, 152);"/>
    <g>
      <title>Atrium Stairs</title>
      <path style="fill:none;stroke:#939598;stroke-width:1.15699995" id="path10947" d="M 241.003 511.698 C 247.447 525.074 259.174 535.732 273.444 540.559"/>
      <path style="fill:none;stroke:#939598;stroke-width:1.15699995" id="path10949" d="M 340.932 511.805 C 334.099 526.217 321.354 537.172 305.732 541.434"/>
      <path style="fill:none;stroke:#939598;stroke-width:1.15699995" id="path10951" d="M 275.169 561.091 C 252.459 556.089 233.449 540.559 223.633 520.002"/>
      <path style="fill: none; stroke: rgb(147, 149, 152); stroke-width: 1.157;" id="path10953" d="M 319.506 557.071 C 298.028 565.99 273.55 564.159 253.724 552.942"/>
      <path style="fill:none;stroke:#939598;stroke-width:1.15699995" id="path10955" d="M 358.27 520.147 C 348.472 540.63 329.587 555.993 306.943 561.016"/>
      <path style="fill:none;stroke:#939598;stroke-width:1.15699995" id="path10957" d="M 268.069 517.021 C 263.657 513.511 260.052 509.034 257.598 503.951"/>
      <path style="fill:none;stroke:#939598;stroke-width:1.15699995" id="path10959" d="M 313.635 517.189 C 307.382 522.052 299.523 524.948 290.988 524.948 C 282.363 524.948 274.388 521.902 268.07 516.876"/>
      <path style="fill:none;stroke:#939598;stroke-width:1.15699995" id="path10961" d="M 324.429 503.847 C 321.936 509.155 318.216 513.773 313.635 517.334"/>
      <path style="fill:none;stroke:#939598;stroke-width:1.15699995" id="path10963" d="M 216.519 487.044 C 216.732 464.356 227.204 444.123 243.521 430.761"/>
      <path style="fill:none;stroke:#939598;stroke-width:1.15699995" id="path10965" d="M 235.745 488.167 C 235.745 470.514 244.024 454.792 256.913 444.682"/>
      <path style="fill:none;stroke:#939598;stroke-width:1.15699995" id="path10967" d="M 216.475 488.459 C 216.475 464.683 227.598 443.216 244.937 429.57"/>
      <line style="fill:none;stroke:#939598;stroke-width:0.57800001" id="line10969" y2="433.89" x2="239.89" y1="447.913" x1="253.093"/>
      <line style="fill:none;stroke:#939598;stroke-width:0.57800001" id="line10971" y2="444.89" x2="256.763" y1="429.646" x1="244.71"/>
      <line style="fill:none;stroke:#939598;stroke-width:0.57800001" id="line10973" y2="455.187" x2="224.134" y1="463.714" x1="241.417"/>
      <line style="fill:none;stroke:#939598;stroke-width:0.57800001" id="line10975" y2="459.581" x2="243.773" y1="449.526" x1="227.167"/>
      <line style="fill:none;stroke:#939598;stroke-width:0.57800001" id="line10977" y2="480.648" x2="216.823" y1="482.6" x1="236.06"/>
      <line style="fill:none;stroke:#939598;stroke-width:0.57800001" id="line10979" y2="477.886" x2="236.692" y1="474.287" x1="217.683"/>
      <line style="fill:none;stroke:#939598;stroke-width:0.57800001" id="line10981" y2="467.482" x2="219.37" y1="472.854" x1="237.966"/>
      <line style="fill:none;stroke:#939598;stroke-width:0.57800001" id="line10983" y2="468.381" x2="239.56" y1="461.376" x1="221.356"/>
      <line style="fill:none;stroke:#939598;stroke-width:0.57800001" id="line10985" y2="443.916" x2="230.827" y1="455.519" x1="246.6"/>
      <line style="fill:none;stroke:#939598;stroke-width:0.57800001" id="line10987" y2="451.996" x2="249.321" y1="439.288" x1="234.685"/>
      <line style="fill:none;stroke:#939598;stroke-width:0.57800001" id="line10989" y2="488.168" x2="216.462" y1="488.17" x1="236.251"/>
      <path style="fill:none;stroke:#939598;stroke-width:1.15699995" id="path10991" d="M 363.843 487.044 C 363.63 464.356 353.158 444.123 336.841 430.761"/>
      <path style="fill:none;stroke:#939598;stroke-width:1.15699995" id="path10993" d="M 344.616 488.167 C 344.616 470.514 336.337 454.792 323.448 444.682"/>
      <path style="fill:none;stroke:#939598;stroke-width:1.15699995" id="path10995" d="M 363.887 488.459 C 363.887 464.683 352.764 443.216 335.425 429.57"/>
      <line style="fill:none;stroke:#939598;stroke-width:0.57800001" id="line10997" y2="433.89" x2="340.472" y1="447.913" x1="327.269"/>
      <line style="fill:none;stroke:#939598;stroke-width:0.57800001" id="line10999" y2="444.89" x2="323.599" y1="429.646" x1="335.651"/>
      <line style="fill:none;stroke:#939598;stroke-width:0.57800001" id="line11001" y2="455.187" x2="356.227" y1="463.714" x1="338.944"/>
      <line style="fill:none;stroke:#939598;stroke-width:0.57800001" id="line11003" y2="459.581" x2="336.588" y1="449.526" x1="353.194"/>
      <line style="fill:none;stroke:#939598;stroke-width:0.57800001" id="line11005" y2="480.648" x2="363.538" y1="482.6" x1="344.302"/>
      <line style="fill:none;stroke:#939598;stroke-width:0.57800001" id="line11007" y2="477.886" x2="343.669" y1="474.287" x1="362.679"/>
      <line style="fill:none;stroke:#939598;stroke-width:0.57800001" id="line11009" y2="467.482" x2="360.991" y1="472.854" x1="342.396"/>
      <line style="fill:none;stroke:#939598;stroke-width:0.57800001" id="line11011" y2="468.381" x2="340.802" y1="461.376" x1="359.005"/>
      <line style="fill:none;stroke:#939598;stroke-width:0.57800001" id="line11013" y2="443.916" x2="349.534" y1="455.519" x1="333.762"/>
      <line style="fill:none;stroke:#939598;stroke-width:0.57800001" id="line11015" y2="451.996" x2="331.04" y1="439.288" x1="345.677"/>
      <line style="fill:none;stroke:#939598;stroke-width:0.57800001" id="line11017" y2="488.168" x2="363.899" y1="488.17" x1="344.11"/>
      <line style="fill:none;stroke:#939598;stroke-width:0.57800001" id="line11019" y2="526.186" x2="226.865" y1="516.297" x1="243.542"/>
      <line style="fill:none;stroke:#939598;stroke-width:0.57800001" id="line11021" y2="513.06" x2="249.003" y1="506.884" x1="259.42"/>
      <line style="fill:none;stroke:#939598;stroke-width:0.5" id="line11023" y2="504.005" x2="258.214" y1="509.551" x1="246.681"/>
      <line style="fill:none;stroke:#939598;stroke-width:0.57800001" id="line11027" y2="526.709" x2="259.947" y1="516.828" x1="267.89"/>
      <line style="fill:none;stroke:#939598;stroke-width:0.57800001" id="line11029" y2="514.797" x2="265.45" y1="523.466" x1="256.88"/>
      <line style="fill:none;stroke:#939598;stroke-width:0.57800001" id="line11031" y2="540.819" x2="273.356" y1="522.59" x1="279.228"/>
      <line style="fill:none;stroke:#939598;stroke-width:0.57800001" id="line11033" y2="521.714" x2="276.422" y1="533.282" x1="271.428"/>
      <line style="fill:none;stroke:#939598;stroke-width:0.57800001" id="line11035" y2="531.442" x2="267.222" y1="520.311" x1="273.354"/>
      <line style="fill:none;stroke:#939598;stroke-width:0.57800001" id="line11037" y2="518.47" x2="270.551" y1="528.725" x1="263.54"/>
      <line style="fill:none;stroke:#939598;stroke-width:0.57800001" id="line11039" y2="520.486" x2="253.987" y1="512.415" x1="263.147"/>
      <line style="fill:none;stroke:#939598;stroke-width:0.57800001" id="line11041" y2="541.784" x2="305.845" y1="523.555" x1="299.974"/>
      <line style="fill:none;stroke:#939598;stroke-width:0.57800001" id="line11043" y2="522.679" x2="302.779" y1="534.247" x1="307.773"/>
      <line style="fill:none;stroke:#939598;stroke-width:0.57800001" id="line11045" y2="532.407" x2="311.979" y1="521.275" x1="305.847"/>
      <line style="fill:none;stroke:#939598;stroke-width:0.57800001" id="line11047" y2="519.906" x2="309.937" y1="529.689" x1="315.66"/>
      <line style="fill:none;stroke:#939598;stroke-width:0.57800001" id="line11049" y2="509.935" x2="261.499" y1="516.968" x1="251.856"/>
      <line style="fill:none;stroke:#939598;stroke-width:0.57800001" id="line11051" y2="520.858" x2="246.526" y1="532.23" x1="230.936"/>
      <path style="fill:none;stroke:#939598;stroke-width:0.57800001" id="path11053" d="M 313.761 517.188 C 317.929 522.503 321.32 526.822 321.32 526.822"/>
      <path style="fill:none;stroke:#939598;stroke-width:0.57800001" id="path11055" d="M 313.613 517.002 C 313.662 517.066 313.71 517.126 313.76 517.19"/>
      <line style="fill:none;stroke:#939598;stroke-width:0.57800001" id="line11057" y2="527.06" x2="354.866" y1="516.72" x1="337.834"/>
      <line style="fill:none;stroke:#939598;stroke-width:0.57800001" id="line11059" y2="513.94" x2="333.257" y1="507.318" x1="322.351"/>
      <line style="fill:none;stroke:#939598;stroke-width:0.57800001" id="line11061" y2="510.078" x2="320.771" y1="517.135" x1="330.739"/>
      <line style="fill:none;stroke:#939598;stroke-width:0.57800001" id="line11063" y2="520.57" x2="335.591" y1="531.793" x1="351.448"/>
      <line style="fill:none;stroke:#939598;stroke-width:0.57800001" id="line11065" y2="520.883" x2="327.667" y1="512.727" x1="318.522"/>
      <line style="fill:none;stroke:#939598;stroke-width:0.57800001" id="line11067" y2="512.728" x2="318.522" y1="512.53" x1="318.302"/>
      <line style="fill:none;stroke:#939598;stroke-width:0.57800001" id="line11069" y2="515.015" x2="316.316" y1="524.159" x1="324.947"/>
      <line style="fill:none;stroke:#939598;stroke-width:0.5" id="line11073" y2="509.609" x2="335.72" y1="503.896" x1="323.813"/>
      <path style="fill: none; stroke: rgb(147, 149, 152); stroke-width: 1.157;" id="path11153" d="M 275.307 534.783 C 255.85 528.245 241.833 509.858 241.833 488.199 C 241.833 461.064 263.831 439.066 290.966 439.066 C 318.103 439.066 340.1 461.064 340.1 488.199 C 340.1 510.872 324.743 529.959 303.861 535.623"/>
    </g>
    <g id="emergency_stair_2">
      <title id="title8285">Emergency exit stairs</title>
      <path d="m 575.454,406.531 9.279,4.114 c 0,0 -2.11,3.622 -5.445,4.438 -3.448,0.847 -7.342,-0.645 -7.342,-0.645" id="path10927" style="fill:none"/>
      <rect x="671.95319" y="142.09383" transform="matrix(0.90840083,0.41810038,-0.41810038,0.90840083,0,0)" width="10.35799" height="27.463976" id="rect11083" style="fill:none"/>
      <path style="opacity:0.2;fill:none;stroke:#939598;stroke-width:1.15699995" id="path10847" d="m 579.286,457.369 c -1.292,2.913 -2.427,5.471 -3.104,6.994 l -51.72,-22.951"/>
      <path style="opacity:0.2;fill:none;stroke:#939598;stroke-width:1.15699995" id="path10849" d="m 565.828,429.904 21.419,9.494 c 0,0 -1.417,3.2 -3.267,7.373"/>
      <line style="opacity:0.1;fill:none;stroke:#939598;stroke-width:0.57800001" id="line10855" y2="419.92899" x2="570.25702" y1="415.34299" x1="559.927"/>
      <line style="opacity:0.1;fill:none;stroke:#939598;stroke-width:0.57800001" id="line10857" y2="411.14401" x2="550.466" y1="406.69501" x1="540.44598"/>
      <line style="opacity:0.1;fill:none;stroke:#939598;stroke-width:0.57800001" id="line10859" y2="424.90601" x2="567.76898" y1="420.396" x1="557.60498"/>
      <line style="opacity:0.1;fill:none;stroke:#939598;stroke-width:0.57800001" id="line10861" y2="416.19" x2="548.133" y1="411.67401" x1="537.95599"/>
      <line style="opacity:0.1;fill:none;stroke:#939598;stroke-width:0.57800001" id="line10863" y2="429.88501" x2="565.27899" y1="425.44601" x1="555.28101"/>
      <line style="opacity:0.1;fill:none;stroke:#939598;stroke-width:0.57800001" id="line10865" y2="421.242" x2="545.81097" y1="416.651" x1="535.46802"/>
      <line style="opacity:0.1;fill:none;stroke:#939598;stroke-width:0.57800001" id="line10867" y2="434.862" x2="562.79199" y1="430.49701" x1="552.95697"/>
      <line style="opacity:0.1;fill:none;stroke:#939598;stroke-width:0.57800001" id="line10869" y2="426.29501" x2="543.48901" y1="421.629" x1="532.97803"/>
      <line style="opacity:0.1;fill:none;stroke:#939598;stroke-width:0.57800001" id="line10871" y2="439.84" x2="560.30103" y1="435.54999" x1="550.63501"/>
      <line style="opacity:0.1;fill:none;stroke:#939598;stroke-width:0.57800001" id="line10873" y2="431.34601" x2="541.16302" y1="426.60699" x1="530.48999"/>
      <path style="opacity:0.2;fill:none;stroke:#939598;stroke-width:1.15699995" id="path10875" d="m 572.607,414.659 c -5.745,12.942 -14.627,32.953 -17.898,40.321"/>
      <path style="opacity:0.2;fill:none;stroke:#939598;stroke-width:1.15699995" id="path10877" d="m 547.902,389.706 c 0,0 12.601,5.591 29.893,13.266 0,0 -0.637,1.436 -1.705,3.842"/>
      <rect style="opacity:0.2;fill:none;stroke:#939598;stroke-width:0.57800001" id="rect11081" height="20.340981" width="17.645985" transform="matrix(0.90840083,0.41810038,-0.41810038,0.90840083,0,0)" y="157.39615" x="697.07031"/>
      <rect style="opacity:0.2;fill:none;stroke:#939598;stroke-width:1.15699995" id="rect11085" height="27.463976" width="10.35799" transform="matrix(0.90840083,0.41810038,-0.41810038,0.90840083,0,0)" y="142.09383" x="671.95319"/>
    </g>
  </g>
  <g id="water_fountains">
    <title id="title8318">Water Fountains</title>
    <use width="10.52400016784668" height="12.729999542236328" transform="matrix(0.99772047996521, 0, 0, 0.9976430535316467, 192.6999969482422, 516.9000244140625)" xlink:href="#fountain"/>
    <use width="10.52400016784668" height="12.729999542236328" transform="matrix(0.99772047996521, 0, 0, 0.9976430535316467, 161.39999389648438, 269.8999938964844)" xlink:href="#fountain"/>
    <use width="10.52400016784668" height="12.729999542236328" transform="matrix(0.99772047996521, 0, 0, 0.9976430535316467, 379.20001220703125, 516.9000244140625)" xlink:href="#fountain"/>
  </g>
  <g style="">
    <title>Wayfinding Arrows</title>
    <g id="g8307">
      <path stroke-miterlimit="10" d="m 170.87899,149.72369 c -60.62203,-46.60893 -106.25316,13.15167 4.25387,65.98872" id="path10676" style="fill:none;stroke:#e6cb8d;stroke-width:2;stroke-miterlimit:10"/>
      <path d="M 171.84 141.783 C 174.216 147.356 178.144 154.223 182.155 158.405 L 172.49 155.422 L 163.155 159.312 C 166.752 154.766 170.008 147.557 171.84 141.783 Z" id="path10680" style="fill:#e6cb8d" transform="matrix(-0.492954, 0.870055, -0.870055, -0.492954, 388.750634, 74.541086)"/>
    </g>
    <g id="g10726">
      <path style="fill:#e6cb8d" id="path10728" d="m 69.229,441.41 c 2.107,-5.68 5.703,-12.727 9.512,-17.095 l -9.512,3.44 -9.51,-3.44 c 3.808,4.369 7.404,11.415 9.51,17.095 z"/>
    </g>
    <g id="g10659">
      <g id="g10661">
        <line style="fill:none;stroke:#e6cb8d;stroke-width:2;stroke-miterlimit:10" id="line10663" y2="304.49701" x2="69.228996" y1="341.42001" x1="69.228996" stroke-miterlimit="10"/>
        <g id="g10665">
          <path style="fill:#e6cb8d" id="path10667" d="m 69.229,353.49 c 2.107,-5.68 5.703,-12.727 9.512,-17.095 l -9.512,3.44 -9.51,-3.44 c 3.808,4.369 7.404,11.416 9.51,17.095 z"/>
        </g>
      </g>
    </g>
    <line stroke-miterlimit="10" x1="69.229" y1="429.34" x2="69.229" y2="403.397" id="line10724" style="fill:none;stroke:#e6cb8d;stroke-width:2;stroke-miterlimit:10"/>
  </g>
  <g>
    <title>Heading</title>
    <text style="font-size: 16px; font-weight: normal; writing-mode: lr; font-stretch: normal; text-anchor: start; line-height: 125%; font-variant: normal; text-align: start; font-family: Helvetica; font-style: normal; fill: rgb(14, 45, 116); white-space: pre;" id="text10682" font-size="16" x="383.741" y="124.616">EDWARD BENNETT WILLIAMS LAW LIBRARY</text>
    <text font-size="36.4337" id="text10686" style="font-size: 36.4px; font-weight: normal; writing-mode: lr; font-stretch: normal; text-anchor: start; line-height: 125%; font-variant: normal; text-align: start; font-family: Helvetica; font-style: normal; fill: rgb(14, 45, 116); white-space: pre;" x="383.741" y="96.38">THIRD FLOOR</text>
    <g transform="matrix(1, 0, 0, 1, -118.704941, -11.976539)" id="legendstudyroom">
      <text style="font-style: normal; font-variant: normal; font-weight: normal; font-stretch: normal; font-size: 10px; line-height: 125%; font-family: Helvetica; text-align: start; writing-mode: lr-tb; text-anchor: start; white-space: pre;" id="text10692" font-size="10" transform="translate(602.0557,219.6621)">GROUP STUDY ROOMS</text>
      <rect style="fill:#c1d2ed;fill-opacity:1;stroke:#939598;stroke-opacity:1" id="rect10694" height="11.408" width="11.408" y="210.235" x="582.00598"/>
    </g>
    <g id="g10696">
      <path style="fill:none;stroke:#0e2d74;stroke-width:0.5;stroke-miterlimit:10" id="path10698" d="m 346.753,87.74 c 3,1.776 5.01,5.047 5.01,8.785 0,5.636 -4.568,10.203 -10.203,10.203 -5.635,0 -10.203,-4.567 -10.203,-10.203 0,-3.74 2.012,-7.01 5.012,-8.786 0.658,-0.39 1.361,-0.706 2.104,-0.941 0.975,-0.31 2.012,-0.477 3.088,-0.477 1.895,0 3.67,0.518 5.192,1.419 z" stroke-miterlimit="10"/>
      <path style="fill:none;stroke:#0e2d74;stroke-width:0.5;stroke-miterlimit:10" id="path10700" d="m 336.368,87.739 c 0.658,-0.39 1.361,-0.706 2.104,-0.941 0.975,-0.31 2.012,-0.477 3.088,-0.477 1.896,0 3.672,0.518 5.193,1.419 l -5.301,-15.24 -5.084,15.239 z" stroke-miterlimit="10"/>
      <path style="fill:#0e2d74" id="path10702" d="m 341.56,86.321 c 1.896,0 3.672,0.518 5.193,1.419 l -5.301,-15.24 0,13.826 0.108,-0.005 z"/>
      <path style="fill:none;stroke:#0e2d74;stroke-width:0.5;stroke-miterlimit:10" id="path10704" d="m 332.772,101.717 c -0.389,-0.656 -0.703,-1.361 -0.941,-2.102 -0.309,-0.976 -0.475,-2.014 -0.475,-3.09 0,-1.895 0.516,-3.67 1.418,-5.192 l -15.24,5.299 15.238,5.085 z" stroke-miterlimit="10"/>
      <path style="fill:#0e2d74" id="path10706" d="m 331.356,96.525 c 0,-1.895 0.516,-3.67 1.418,-5.192 l -15.24,5.299 13.826,0 -0.004,-0.107 z"/>
      <path style="fill:none;stroke:#0e2d74;stroke-width:0.5;stroke-miterlimit:10" id="path10708" d="m 346.753,105.313 c -0.658,0.389 -1.363,0.705 -2.102,0.941 -0.979,0.309 -2.016,0.475 -3.092,0.475 -1.895,0 -3.67,-0.515 -5.191,-1.417 l 5.299,15.24 5.086,-15.239 z" stroke-miterlimit="10"/>
      <path style="fill:#0e2d74" id="path10710" d="m 341.56,106.729 c -1.895,0 -3.67,-0.515 -5.191,-1.417 l 5.299,15.24 0,-13.827 -0.108,0.004 z"/>
      <path style="fill:none;stroke:#0e2d74;stroke-width:0.5;stroke-miterlimit:10" id="path10712" d="m 350.347,91.333 c 0.389,0.657 0.707,1.363 0.941,2.103 0.309,0.975 0.477,2.014 0.477,3.09 0,1.896 -0.518,3.671 -1.42,5.193 l 15.24,-5.3 -15.238,-5.086 z" stroke-miterlimit="10"/>
      <path style="fill:#0e2d74" id="path10714" d="m 351.765,96.525 c 0,1.896 -0.518,3.671 -1.42,5.193 l 15.24,-5.3 -13.826,0 0.006,0.107 z"/>
    </g>
    <text font-size="14" id="text10718" style="font-size: 14px; font-weight: normal; writing-mode: lr; font-stretch: normal; text-anchor: start; line-height: 125%; font-variant: normal; text-align: start; font-family: Helvetica; font-style: normal; fill: rgb(14, 45, 116); white-space: pre;" x="336.887" y="68.356">N</text>
    <g transform="matrix(1, 0, 0, 1, 21.040327, -38.028599)" id="legendwaterfountain">
      <path id="path10737" d="m 587.027,195.756 0,-6.162 2.302,-1.265 0,1.159 c 0,0.231 0,0.231 0.139,0.409 l 1.321,1.496 c 0.123,0.143 0.264,0.216 0.425,0.216 0.338,0 0.622,-0.306 0.622,-0.59 0,-0.198 -0.067,-0.41 -0.21,-0.553 l -1.123,-1.211 0,-2.474 c 0,-0.482 -0.551,-1.086 -1.174,-1.086 -0.304,0 -0.644,0.085 -0.947,0.247 l -2.331,1.302 c -0.483,0.248 -0.998,0.551 -0.998,1.28 l 0,7.268 c 0,0.709 0.338,1.138 0.978,1.138 0.658,0.001 0.996,-0.444 0.996,-1.174 m 6.003,-10.238 c 0,-0.713 -0.587,-1.318 -1.301,-1.318 -0.691,0 -1.28,0.588 -1.28,1.302 0,0.726 0.604,1.332 1.3,1.332 0.694,-0.001 1.281,-0.625 1.281,-1.316 m -2.082,3.346 c 0,0.178 0.033,0.283 0.198,0.48 l 2.386,2.706 2.045,0 0,-3.649 -4.04,0 c -0.375,0 -0.589,0.161 -0.589,0.463 m 1.571,-0.782 c 0,-0.091 -0.06,-0.145 -0.146,-0.145 -0.106,0 -0.178,0.091 -0.178,0.16 0,0.107 0.071,0.161 0.158,0.161 0.09,10e-4 0.166,-0.033 0.166,-0.176 m 0.011,-0.463 c 0,-0.093 -0.049,-0.164 -0.139,-0.164 -0.107,0 -0.177,0.09 -0.177,0.164 0,0.105 0.084,0.16 0.177,0.16 0.09,0 0.139,-0.038 0.139,-0.16 m 0.162,-0.483 c 0,-0.089 -0.053,-0.144 -0.143,-0.144 -0.106,0 -0.177,0.089 -0.177,0.164 0,0.104 0.086,0.157 0.177,0.157 0.091,0 0.143,-0.052 0.143,-0.177 m 0.267,0.464 c 0,-0.089 -0.049,-0.145 -0.142,-0.145 -0.091,0 -0.178,0.071 -0.178,0.164 0,0.087 0.087,0.16 0.178,0.16 0.093,0 0.142,-0.054 0.142,-0.179 m 0,0.482 c 0,-0.091 -0.049,-0.145 -0.142,-0.145 -0.091,0 -0.178,0.07 -0.178,0.16 0,0.107 0.068,0.161 0.16,0.161 0.111,10e-4 0.16,-0.053 0.16,-0.176 m 0.09,-1.267 c 0,-0.088 -0.09,-0.178 -0.194,-0.178 -0.109,0 -0.178,0.09 -0.178,0.195 0,0.09 0.086,0.179 0.178,0.179 0.084,0.001 0.194,-0.088 0.194,-0.196 m 0.196,0.411 c 0,-0.09 -0.104,-0.179 -0.196,-0.179 -0.109,0 -0.177,0.073 -0.177,0.198 0,0.088 0.067,0.178 0.177,0.178 0.093,0 0.196,-0.09 0.196,-0.197 m 0.232,-0.554 c 0,-0.086 -0.089,-0.175 -0.193,-0.175 -0.109,0 -0.179,0.072 -0.179,0.194 0,0.091 0.085,0.178 0.196,0.178 0.087,0 0.176,-0.087 0.176,-0.197 m 0.196,0.391 c 0,-0.084 -0.107,-0.174 -0.196,-0.174 -0.089,0 -0.176,0.054 -0.176,0.174 0,0.11 0.087,0.198 0.195,0.198 0.069,0 0.177,-0.088 0.177,-0.198 m 0.284,-0.407 c 0,-0.106 -0.089,-0.198 -0.193,-0.198 -0.091,0 -0.198,0.073 -0.198,0.198 0,0.126 0.139,0.193 0.198,0.193 0.122,0.001 0.193,-0.103 0.193,-0.193 m 0.142,0.57 c 0,-0.09 -0.103,-0.179 -0.191,-0.179 -0.111,0 -0.18,0.073 -0.18,0.179 0,0.107 0.086,0.197 0.195,0.197 0.073,0 0.176,-0.09 0.176,-0.197 m 0.301,-0.357 c 0,-0.104 -0.087,-0.197 -0.196,-0.197 -0.087,0 -0.193,0.074 -0.193,0.197 0,0.123 0.145,0.193 0.193,0.193 0.128,10e-4 0.196,-0.102 0.196,-0.193 m 0.019,0.731 c 0,-0.106 -0.087,-0.195 -0.195,-0.195 -0.088,0 -0.196,0.068 -0.196,0.195 0,0.125 0.14,0.196 0.196,0.196 0.125,0 0.195,-0.109 0.195,-0.196 m 0.36,-0.374 c 0,-0.105 -0.09,-0.194 -0.199,-0.194 -0.09,0 -0.192,0.07 -0.192,0.194 0,0.124 0.141,0.197 0.192,0.197 0.125,0 0.199,-0.11 0.199,-0.197"/>
      <text style="font-style: normal; font-variant: normal; font-weight: normal; font-stretch: normal; font-size: 10px; line-height: 125%; font-family: Helvetica; text-align: start; writing-mode: lr-tb; text-anchor: start; white-space: pre;" id="text10739" font-size="10" transform="translate(602.0557,194.4619)"><tspan y="0" x="0" id="tspan9851">DRINKING FOUNTAIN</tspan></text>
    </g>
    <g transform="matrix(1, 0, 0, 1, 20.913862, 11.293262)" id="legendrestrooms">
      <g id="g10742">
        <path id="path10744" d="m 592.164,164.182 -0.666,2.345 c 0,0.35 0.047,0.604 0.334,0.604 0.256,0 0.361,-0.163 0.422,-0.332 l 0.713,-2.509 0.197,0 -1.166,4.509 1.166,0 0,3.283 c 0,0.35 0.182,0.547 0.438,0.547 0.258,0 0.439,-0.197 0.439,-0.547 l 0,-3.283 0.274,0 0,3.283 c 0,0.35 0.181,0.547 0.438,0.547 0.256,0 0.438,-0.197 0.438,-0.547 l 0,-3.283 1.166,0 -1.301,-4.497 0.197,0 0.771,2.497 c 0.062,0.215 0.24,0.332 0.424,0.332 0.227,0 0.348,-0.163 0.348,-0.377 0,-0.075 -0.016,-0.149 -0.027,-0.227 l -0.698,-2.345 c -0.198,-0.71 -0.483,-1.211 -1.331,-1.211 l -1.244,0 c -0.983,0 -1.182,0.681 -1.332,1.211 m 2.938,-2.424 c 0,-0.529 -0.453,-0.964 -0.97,-0.964 -0.515,0 -0.968,0.435 -0.968,0.964 0,0.532 0.469,0.97 0.968,0.97 0.516,0 0.97,-0.438 0.97,-0.97"/>
        <path id="path10746" d="m 586.651,167.044 0,-2.513 0.259,0 0,7.445 c 0,0.412 0.212,0.651 0.543,0.651 0.334,0 0.546,-0.239 0.546,-0.651 l 0,-4.33 0.272,0 0,4.33 c 0,0.412 0.213,0.638 0.545,0.638 0.332,0 0.545,-0.226 0.545,-0.638 l 0,-7.445 0.258,0 0,2.513 c 0,0.392 0.137,0.587 0.408,0.587 0.273,0 0.409,-0.195 0.409,-0.587 l 0,-2.636 c 0,-0.935 -0.53,-1.453 -1.454,-1.453 l -1.695,0 c -0.922,0 -1.452,0.519 -1.452,1.453 l 0,2.636 c 0,0.392 0.135,0.587 0.409,0.587 0.287,0 0.407,-0.195 0.407,-0.587 m 2.469,-5.299 c 0,-0.532 -0.455,-0.967 -0.97,-0.967 -0.514,0 -0.97,0.435 -0.97,0.967 0,0.529 0.472,0.97 0.97,0.97 0.515,0 0.97,-0.441 0.97,-0.97"/>
      </g>
      <text style="font-style: normal; font-variant: normal; font-weight: normal; font-stretch: normal; font-size: 10px; line-height: 125%; font-family: Helvetica; text-align: start; writing-mode: lr-tb; text-anchor: start; white-space: pre;" id="text10748" font-size="10" transform="translate(602.0557,170.9023)">RESTROOMS</text>
    </g>
    <g transform="matrix(1, 0, 0, 1, -33.331463, -14.715401)" id="legendcomputer">
      <text style="font-style: normal; font-variant: normal; font-weight: normal; font-stretch: normal; font-size: 10px; line-height: 125%; font-family: Helvetica; text-align: start; writing-mode: lr-tb; text-anchor: start; white-space: pre;" id="text10807" font-size="10" transform="translate(516.7363,170.9023)">COMPUTER</text>
      <g id="g10809">
        <path id="path10811" d="m 510.616,170.813 c 0,0.589 -0.482,1.071 -1.072,1.071 l -3.644,0 c 0,0.569 0.429,1.052 0.429,1.286 0,0.234 -0.194,0.429 -0.429,0.429 l -3.43,0 c -0.234,0 -0.429,-0.194 -0.429,-0.429 0,-0.248 0.429,-0.703 0.429,-1.286 l -3.644,0 c -0.59,0 -1.072,-0.482 -1.072,-1.071 l 0,-7.289 c 0,-0.589 0.482,-1.071 1.072,-1.071 l 10.717,0 c 0.59,0 1.072,0.482 1.072,1.071 l 0,7.289 z m -0.857,-7.289 c 0,-0.113 -0.101,-0.214 -0.215,-0.214 l -10.717,0 c -0.114,0 -0.215,0.101 -0.215,0.214 l 0,5.574 c 0,0.113 0.101,0.214 0.215,0.214 l 10.717,0 c 0.114,0 0.215,-0.101 0.215,-0.214 l 0,-5.574 z"/>
      </g>
    </g>
    <g id="legendprinter" transform="matrix(1, 0, 0, 1, -34.731312, -92.156181)">
      <text style="font-style: normal; font-variant: normal; font-weight: normal; font-stretch: normal; font-size: 10px; line-height: 125%; font-family: Helvetica; text-align: start; writing-mode: lr-tb; text-anchor: start; white-space: pre;" id="text10814" font-size="10" x="517.52148" y="274.46191"><tspan id="tspan8811" x="517.52148" y="274.46191">PRINTER/COPIER</tspan></text>
      <g id="g10816" transform="translate(0,80)">
        <path id="path10818" d="m 509.759,193.779 c 0,0.114 -0.101,0.215 -0.215,0.215 l -1.5,0 0,1.072 c 0,0.354 -0.288,0.643 -0.643,0.643 l -6.432,0 c -0.354,0 -0.643,-0.288 -0.643,-0.643 l 0,-1.072 -1.5,0 c -0.114,0 -0.215,-0.101 -0.215,-0.215 l 0,-2.786 c 0,-0.703 0.583,-1.286 1.286,-1.286 l 0.429,0 0,-3.645 c 0,-0.354 0.288,-0.643 0.643,-0.643 l 4.502,0 c 0.355,0 0.844,0.201 1.099,0.455 l 1.019,1.019 c 0.254,0.255 0.455,0.743 0.455,1.099 l 0,1.715 0.429,0 c 0.703,0 1.286,0.583 1.286,1.286 l 0,2.786 z m -2.572,-3.215 0,-2.572 -1.072,0 c -0.354,0 -0.643,-0.288 -0.643,-0.643 l 0,-1.072 -4.287,0 0,4.287 6.002,0 z m 0,4.288 0,-1.715 -6.002,0 0,1.715 6.002,0 z m 1.286,-4.288 c -0.234,0 -0.429,0.194 -0.429,0.429 0,0.235 0.194,0.429 0.429,0.429 0.235,0 0.429,-0.194 0.429,-0.429 0,-0.235 -0.195,-0.429 -0.429,-0.429 z"/>
      </g>
    </g>
    <g transform="matrix(1, 0, 0, 1, -4.758798, 14.454919)" id="g14754">
      <g id="g10820" transform="translate(-113.74884,-26.469855)">
        <path d="m 594.138,244.859 c 0,0.175 -0.107,0.329 -0.262,0.396 -0.053,0.021 -0.113,0.034 -0.167,0.034 -0.114,0 -0.221,-0.041 -0.302,-0.128 l -2.699,-2.699 0,1.112 c 0,1.064 -0.864,1.929 -1.929,1.929 l -4.717,0 c -1.064,0 -1.929,-0.864 -1.929,-1.929 l 0,-4.717 c 0,-1.064 0.864,-1.929 1.929,-1.929 l 4.717,0 c 1.064,0 1.929,0.864 1.929,1.929 l 0,1.105 2.699,-2.692 c 0.081,-0.087 0.188,-0.128 0.302,-0.128 0.054,0 0.114,0.014 0.167,0.034 0.154,0.066 0.262,0.221 0.262,0.396 l 0,7.287 z" id="path10822"/>
      </g>
      <text y="219.03305" x="488.30688" font-size="10" id="text10824" style="font-style: normal; font-variant: normal; font-weight: normal; font-stretch: normal; font-size: 10px; line-height: 125%; font-family: Helvetica; text-align: start; writing-mode: lr-tb; text-anchor: start; white-space: pre;">VIDEO SCREEN</text>
    </g>
  </g>
  <g id="ranges" style="">
    <title>Ranges</title>
    <g id="f-rrmez">
      <title>Reading Room Mezzanine</title>
      <polygon style="opacity:0.6;fill:#e6cb8d" points="531.256 419.286 534.203 420.578 541.934 403.431 538.994 402.122" id="f-3-007a">
        <title>3-007a</title>
      </polygon>
      <polygon style="opacity:0.6;fill:#e6cb8d" points="526.698 436.833 533.869 420.927 530.922 419.635 523.76 435.521" id="f-3-007b">
        <title>3-007b</title>
      </polygon>
      <polygon style="opacity:0.6;fill:#e6cb8d" points="523.448 436.133 518.401 447.327 521.335 448.65 526.387 437.445" id="feature409">
        <title>3-007c</title>
      </polygon>
      <polygon style="opacity:0.6;fill:#e6cb8d" points="522.811 449.321 478.492 429.536 477.181 432.476 521.512 452.266" id="f-3-007d">
        <title>3-007d</title>
      </polygon>
      <polygon style="opacity:0.6;fill:#e6cb8d" points="497.056 388.277 477.108 432.521 480.042 433.845 499.995 389.586" id="f-3-007">
        <title>3-007</title>
      </polygon>
      <polygon style="opacity:0.6;fill:#e6cb8d" points="477.108 432.521 497.056 388.277 494.002 386.919 474.062 431.147" id="f-3-008">
        <title>3-008</title>
      </polygon>
      <polygon style="opacity:0.6;fill:#e6cb8d" points="467.526 428.234 487.464 384.011 484.523 382.702 464.593 426.911" id="f-3-009">
        <title>3-009</title>
      </polygon>
      <polygon style="opacity:0.6;fill:#e6cb8d" points="464.593 426.911 484.523 382.702 481.471 381.344 461.546 425.537" id="f-3-010">
        <title>3-010</title>
      </polygon>
      <polygon style="opacity:0.6;fill:#e6cb8d" points="418.954 406.505 463.285 426.295 464.584 423.351 420.266 403.565" id="f-3-011">
        <title>3-011</title>
      </polygon>
      <polygon style="opacity:0.6;fill:#e6cb8d" points="421.815 407.595 441.769 363.336 438.829 362.027 418.882 406.271" id="f-3-012">
        <title>3-012</title>
      </polygon>
      <polygon style="opacity:0.6;fill:#e6cb8d" points="418.882 406.271 438.829 362.027 435.775 360.669 415.835 404.897" id="f-3-013">
        <title>3-013</title>
      </polygon>
      <polygon style="opacity:0.6;fill:#e6cb8d" points="426.297 356.452 406.366 400.661 409.3 401.984 429.237 357.761" id="f-3-014">
        <title>3-014</title>
      </polygon>
      <polygon style="opacity:0.6;fill:#e6cb8d" points="423.244 355.094 403.319 399.287 406.366 400.661 426.297 356.452" id="f-3-015">
        <title>3-015</title>
      </polygon>
      <polygon style="opacity:0.6;fill:#e6cb8d" points="414.506 401.129 370.188 381.344 368.876 384.283 413.207 404.073" id="f-3-016">
        <title>3-016</title>
      </polygon>
      <polygon id="f-3-017" points="376.46 386.688 396.413 342.429 393.474 341.12 373.526 385.364" style="opacity:0.6;fill:#e6cb8d">
        <title>3-017</title>
      </polygon>
      <polygon style="opacity:0.6;fill:#e6cb8d" points="379.966 335.463 360.019 379.707 362.952 381.03 382.905 336.771" id="f-3-018">
        <title>3-018</title>
      </polygon>
      <path style="opacity:0.6;fill:#e6cb8d" d="M 363.923 378.629 L 355.378 374.625 L 354.207 377.497 L 362.848 381.17 Z" id="f-3-019">
        <title>3-019</title>
      </path>
      <path style="opacity:0.6;fill:#e6cb8d" d="M 323.544 358.978 L 322.232 361.917 L 334.046 366.721 L 335.038 364.297 Z" id="f-3-020">
        <title>3-020</title>
      </path>
      <polygon style="opacity:0.6;fill:#e6cb8d" points="345.048 318.337 325.101 362.581 328.034 363.904 347.987 319.646" id="f-3-021">
        <title>3-021</title>
      </polygon>
      <polygon style="opacity:0.6;fill:#e6cb8d" points="325.101 362.581 345.048 318.337 341.994 316.979 322.054 361.207" id="f-3-022">
        <title>3-022</title>
      </polygon>
      <polygon id="f-3-023" points="315.519 358.294 335.456 314.07 332.516 312.762 312.585 356.971" style="opacity:0.6;fill:#e6cb8d">
        <title>3-023</title>
      </polygon>
      <polygon style="opacity:0.6;fill:#e6cb8d" points="312.585 356.971 332.516 312.762 329.463 311.403 309.538 355.597" id="f-3-024">
        <title>3-024</title>
      </polygon>
      <polygon style="opacity:0.6;fill:#e6cb8d" points="311.221 352.982 266.902 333.197 265.591 336.137 309.922 355.927" id="f-3-025">
        <title>3-025</title>
      </polygon>
      <polygon id="f-3-026" points="268.453 337.653 288.406 293.395 285.467 292.086 265.52 336.33" style="opacity:0.6;fill:#e6cb8d">
        <title>3-026</title>
      </polygon>
      <polygon style="opacity:0.6;fill:#e6cb8d" points="265.52 336.33 285.467 292.086 282.413 290.728 262.473 334.956" id="f-3-027">
        <title>3-027</title>
      </polygon>
      <polygon style="opacity:0.6;fill:#e6cb8d" points="272.935 286.511 253.004 330.72 255.938 332.043 275.875 287.819" id="f-3-028">
        <title>3-028</title>
      </polygon>
      <polygon style="opacity:0.6;fill:#e6cb8d" points="253.004 330.72 272.935 286.511 269.882 285.152 249.957 329.346" id="f-3-029">
        <title>3-029</title>
      </polygon>
      <polygon style="opacity:0.6;fill:#e6cb8d" points="207.204 309.912 251.535 329.702 252.834 326.758 208.516 306.973" id="f-3-030">
        <title>3-030</title>
      </polygon>
      <polygon style="opacity:0.6;fill:#e6cb8d" points="207.418 310.301 227.371 266.042 224.432 264.733 204.484 308.978" id="f-3-031">
        <title>3-031</title>
      </polygon>
      <polygon style="opacity:0.6;fill:#e6cb8d" points="221.378 263.375 201.438 307.604 204.484 308.978 224.432 264.733" id="f-3-032">
        <title>3-032</title>
      </polygon>
      <polygon style="opacity:0.6;fill:#e6cb8d" points="211.899 259.158 191.969 303.367 194.902 304.69 214.84 260.467" id="f-3-033">
        <title>3-033</title>
      </polygon>
      <polygon style="opacity:0.6;fill:#e6cb8d" points="191.969 303.367 211.899 259.158 208.847 257.8 188.922 301.993" id="f-3-034">
        <title>3-034</title>
      </polygon>
    </g>
    <rect id="f-3-084" x="55.375" y="450.604" width="98.128998" height="3.279" style="opacity:0.6;fill:#e6cb8d">
      <title>3-084</title>
    </rect>
    <rect id="f-3-083" x="55.375" y="447.32401" width="98.128998" height="3.279" style="opacity:0.6;fill:#e6cb8d">
      <title>3-083</title>
    </rect>
    <rect id="f-3-082" x="55.375" y="436.89499" width="98.128998" height="3.279" style="opacity:0.6;fill:#e6cb8d">
      <title>3-082</title>
    </rect>
    <rect id="f-3-081" x="55.375" y="433.61499" width="98.128998" height="3.279" style="opacity:0.6;fill:#e6cb8d">
      <title>3-081</title>
    </rect>
    <rect id="f-3-080" x="55.375" y="423.47198" width="98.128998" height="2.993" style="opacity:0.6;fill:#e6cb8d">
      <title>3-080</title>
    </rect>
    <rect id="f-3-079" x="55.375" y="419.90601" width="98.128998" height="3.5650001" style="opacity:0.6;fill:#e6cb8d">
      <title>3-079</title>
    </rect>
    <rect id="f-3-078" x="55.375" y="409.478" width="98.128998" height="3.279" style="opacity:0.6;fill:#e6cb8d">
      <title>3-078</title>
    </rect>
    <rect id="f-3-077" x="55.375" y="406.198" width="98.128998" height="3.279" style="opacity:0.6;fill:#e6cb8d">
      <title>3-077</title>
    </rect>
    <rect id="f-3-076" x="55.375" y="395.76901" width="98.128998" height="3.279" style="opacity:0.6;fill:#e6cb8d">
      <title>3-076</title>
    </rect>
    <rect id="f-3-075" x="55.375" y="392.48901" width="98.128998" height="3.279" style="opacity:0.6;fill:#e6cb8d">
      <title>3-075</title>
    </rect>
    <rect id="f-3-074" x="55.375" y="382.06" width="98.128998" height="3.279" style="opacity:0.6;fill:#e6cb8d">
      <title>3-074</title>
    </rect>
    <rect id="f-3-073" x="55.375" y="378.78" width="98.128998" height="3.279" style="opacity:0.6;fill:#e6cb8d">
      <title>3-073</title>
    </rect>
    <rect id="f-3-072" x="55.375" y="368.35101" width="98.128998" height="3.279" style="opacity:0.6;fill:#e6cb8d">
      <title>3-072</title>
    </rect>
    <rect id="f-3-071" x="55.375" y="365.07101" width="98.128998" height="3.279" style="opacity:0.6;fill:#e6cb8d">
      <title>3-071</title>
    </rect>
    <rect id="f-3-070" x="55.375" y="354.642" width="98.128998" height="3.279" style="opacity:0.6;fill:#e6cb8d">
      <title>3-070</title>
    </rect>
    <rect id="f-3-069" x="55.375" y="351.362" width="98.128998" height="3.279" style="opacity:0.6;fill:#e6cb8d">
      <title>3-069</title>
    </rect>
    <rect id="f-3-068" x="55.375" y="340.93301" width="98.128998" height="3.279" style="opacity:0.6;fill:#e6cb8d">
      <title>3-068</title>
    </rect>
    <rect id="f-3-067" x="55.375" y="337.65302" width="98.128998" height="3.279" style="opacity:0.6;fill:#e6cb8d">
      <title>3-067</title>
    </rect>
    <rect id="f-3-066" x="55.375" y="327.224" width="98.128998" height="3.279" style="opacity:0.6;fill:#e6cb8d">
      <title>3-066</title>
    </rect>
    <rect id="f-3-065" x="55.375" y="323.944" width="98.128998" height="3.279" style="opacity:0.6;fill:#e6cb8d">
      <title>3-065</title>
    </rect>
    <rect id="f-3-064" x="55.375" y="313.51599" width="98.128998" height="3.279" style="opacity:0.6;fill:#e6cb8d">
      <title>3-064</title>
    </rect>
    <rect id="f-3-063" x="55.375" y="310.23599" width="98.128998" height="3.279" style="opacity:0.6;fill:#e6cb8d">
      <title>3-063</title>
    </rect>
    <rect id="f-3-062" x="55.375" y="299.80701" width="98.128998" height="3.279" style="opacity:0.6;fill:#e6cb8d">
      <title>3-062</title>
    </rect>
    <rect id="f-3-061" x="55.375" y="296.52701" width="98.128998" height="3.279" style="opacity:0.6;fill:#e6cb8d">
      <title>3-061</title>
    </rect>
    <rect id="f-3-060" x="55.375" y="286.09799" width="98.128998" height="3.279" style="opacity:0.6;fill:#e6cb8d">
      <title>3-060</title>
    </rect>
    <rect id="f-3-059" x="55.375" y="282.81799" width="98.128998" height="3.279" style="opacity:0.6;fill:#e6cb8d">
      <title>3-059</title>
    </rect>
    <path d="M 213.082 182.131 L 223.25 159.354 L 226.063 160.609 L 215.895 183.387 L 213.082 182.131 Z" id="f-3-055" style="opacity:0.6;fill:#e6cb8d">
      <title>3-055</title>
    </path>
    <path d="M 204.407 174.358 L 213.005 155.099 L 215.817 156.354 L 207.22 175.613 L 204.407 174.358 Z" style="opacity:0.6;fill:#e6cb8d" id="f-3-054">
      <title>3-054</title>
    </path>
    <path d="M 201.603 173.049 L 210.201 153.789 L 213.013 155.045 L 204.416 174.305 L 201.603 173.049 Z" id="f-3-053" style="opacity:0.6;fill:#e6cb8d">
      <title>3-053</title>
    </path>
    <path d="M 185.132 179.98 L 198.969 148.983 L 201.781 150.239 L 187.944 181.236 L 185.132 179.98 Z" style="opacity:0.6;fill:#e6cb8d" id="f-3-052">
      <title>3-052</title>
    </path>
    <path d="M 181.956 178.562 L 195.792 147.565 L 198.969 148.984 L 185.133 179.98 L 181.956 178.562 Z" style="opacity:0.6;fill:#e6cb8d" id="f-3-051">
      <title>3-051</title>
    </path>
    <path d="M 170.367 173.276 L 184.204 142.279 L 187.015 143.535 L 173.179 174.531 L 170.367 173.276 Z" id="f-3-050" style="opacity:0.6;fill:#e6cb8d">
      <title>3-050</title>
    </path>
    <path d="M 167.19 171.858 L 181.027 140.861 L 184.204 142.279 L 170.367 173.276 L 167.19 171.858 Z" id="f-3-049" style="opacity:0.6;fill:#e6cb8d">
      <title>3-049</title>
    </path>
    <path d="M 153.919 166.039 L 167.756 135.043 L 170.569 136.298 L 156.732 167.295 L 153.919 166.039 Z" id="f-3-048" style="opacity:0.6;fill:#e6cb8d">
      <title>3-048</title>
    </path>
    <path d="M 150.743 164.622 L 164.58 133.625 L 167.756 135.043 L 153.919 166.039 L 150.743 164.622 Z" id="f-3-047" style="opacity:0.6;fill:#e6cb8d">
      <title>3-047</title>
    </path>
    <path d="M 94.879 174.848 L 108.24 148.169 L 110.872 149.576 L 97.511 176.256 L 94.879 174.848 Z" style="opacity:0.6;fill:#e6cb8d" id="f-3-046">
      <title>3-046</title>
    </path>
    <path d="M 104.661 186.35 L 118.498 155.353 L 121.675 156.771 L 107.838 187.768 L 104.661 186.35 Z" style="opacity:0.6;fill:#e6cb8d" id="f-3-045">
      <title>3-045</title>
    </path>
    <path d="M 110.657 189.03 L 107.845 187.774 L 121.685 156.777 L 124.497 158.032 L 110.657 189.03 Z" style="opacity:0.6;fill:#e6cb8d" id="f-3-044">
      <title>3-044</title>
    </path>
    <path d="M 117.188 191.942 L 131.024 160.946 L 134.201 162.364 L 120.364 193.361 L 117.188 191.942 Z" style="opacity:0.6;fill:#e6cb8d" id="f-3-043">
      <title>3-043</title>
    </path>
    <path d="M 123.184 194.622 L 120.371 193.366 L 134.212 162.369 L 137.024 163.624 L 123.184 194.622 Z" style="opacity:0.6;fill:#e6cb8d" id="f-3-042">
      <title>3-042</title>
    </path>
    <path d="M 129.717 197.535 L 143.554 166.539 L 146.73 167.956 L 132.893 198.953 L 129.717 197.535 Z" style="opacity:0.6;fill:#e6cb8d" id="f-3-041">
      <title>3-041</title>
    </path>
    <path d="M 135.713 200.215 L 132.9 198.959 L 146.741 167.962 L 149.553 169.217 L 135.713 200.215 Z" style="opacity:0.6;fill:#e6cb8d" id="f-3-040">
      <title>3-040</title>
    </path>
    <path d="M 142.243 203.187 L 156.08 172.19 L 159.256 173.608 L 145.419 204.605 L 142.243 203.187 Z" style="opacity:0.6;fill:#e6cb8d" id="f-3-039">
      <title>3-039</title>
    </path>
    <path d="M 145.419 204.605 L 159.256 173.608 L 162.068 174.863 L 148.232 205.86 L 145.419 204.605 Z" style="opacity:0.6;fill:#e6cb8d" id="f-3-038">
      <title>3-038</title>
    </path>
    <path d="M 154.769 208.78 L 168.606 177.783 L 171.783 179.201 L 157.946 210.198 L 154.769 208.78 Z" style="opacity:0.6;fill:#e6cb8d" id="f-3-037">
      <title>3-037</title>
    </path>
    <path d="M 157.945 210.198 L 171.782 179.2 L 174.595 180.455 L 160.758 211.453 L 157.945 210.198 Z" style="opacity:0.6;fill:#e6cb8d" id="f-3-036">
      <title>3-036</title>
    </path>
    <path d="M 181.15 183.324 L 184.202 184.685 L 170.372 215.689 L 167.32 214.327 L 181.15 183.324 Z" style="opacity:0.6;fill:#e6cb8d" id="f-3-035">
      <title>3-035</title>
    </path>
  </g>
  <g>
    <title>Doors</title>
    <path style="fill:none" id="path11209" d="M 230.947 395.146 L 222.35 400.546 C 222.35 400.546 220.523 396.771 221.709 393.551 C 222.932 390.216 226.344 387.822 226.344 387.822"/>
    <path style="fill:none" id="path11205" d="M 116.146 134.53 L 106.932 130.27 C 106.932 130.27 109.097 126.68 112.446 125.917 C 115.907 125.124 119.699 126.67 119.699 126.67"/>
    <path style="fill:none" id="path11183" d="M 107.085 138.919 L 99.47 135.689 C 99.47 135.689 98.29 139.708 99.993 142.694 C 101.753 145.78 106.473 148.034 106.473 148.034"/>
    <path style="fill:none" id="path11175" d="M 136.635 259.637 L 131.206 251.056 C 131.206 251.056 127.933 253.671 127.61 257.091 C 127.278 260.626 129.307 264.264 129.307 264.264"/>
    <path style="fill:none" id="path11173" d="M 242.269 378.388 L 238.048 369.156 C 238.048 369.156 242.028 367.843 245.066 369.442 C 248.211 371.09 250.136 374.791 250.136 374.791"/>
    <path style="fill:none" id="path11121" d="M 286.353 388.949 L 286.249 378.798 C 286.249 378.798 290.419 379.217 292.546 381.913 C 294.745 384.697 295.003 388.861 295.003 388.861"/>
    <path style="fill:none" id="path11119" d="M 331.976 387.329 L 336.157 378.08 C 336.157 378.08 339.763 380.216 340.556 383.556 C 341.378 387.011 339.859 390.893 339.859 390.893"/>
    <path style="fill: none; visibility: hidden;" id="path10925" d="M 143.14 255.365 L 137.806 246.727 C 137.806 246.727 141.592 244.928 144.806 246.139 C 148.13 247.387 150.441 250.77 150.441 250.77"/>
    <path style="fill:none" id="path11115" d="M 250.745 397.31 L 247.108 387.832 C 247.108 387.832 251.164 386.769 254.094 388.556 C 257.129 390.397 258.821 394.209 258.821 394.209"/>
  </g>
  <g id="offices" style="stroke:none;stroke-opacity:1">
    <path id="room320" style="opacity:0.2;fill:none;stroke:none;stroke-width:1.15699995;stroke-opacity:1" d="m 46.532,176.781 c -12.951,-6.858 -21.775,-20.474 -21.775,-36.148 0,-22.576 18.303,-40.877 40.879,-40.877 21.913,0 39.799,17.242 40.83,38.9 m -0.569,9.075 c -3.359,19.191 -20.107,33.778 -40.262,33.778 -3.635,0 -7.157,-0.474 -10.511,-1.363">
      <title id="title8063">Room 320</title>
    </path>
    <path style="fill:none;stroke:none;stroke-width:1.15699995;stroke-opacity:1" d="m 89.352,230.678 5.624199,0" id="polyline11143"/>
    <title id="title6440">3rd Floor Office Walls</title>
    <path style="opacity:0.2;fill:none;stroke:none;stroke-width:1.15699995;stroke-miterlimit:4;stroke-dasharray:none;stroke-opacity:1" d="m 92.849,193.283 -3.691,2.494 0,34.54474" id="path5271"/>
    <path style="opacity:0.2;fill:none;stroke:none;stroke-width:1.15699995;stroke-opacity:1" d="m 102.818,186.547 -2.843,1.921" id="path5276"/>
    <polyline points="115.405,134.188 113.97,137.354 105.548,133.834  " id="polyline11135" style="opacity:0.2;fill:none;stroke:none;stroke-width:1.15699995;stroke-opacity:1"/>
    <path id="path5322" d="m 51.508907,230.2256 0,37.02204 -0.17885,-0.35771" style="opacity:0.2;fill:none;fill-rule:evenodd;stroke:none;stroke-width:1.15699995;stroke-linecap:butt;stroke-linejoin:miter;stroke-miterlimit:4;stroke-dasharray:none;stroke-opacity:1"/>
    <path id="path5324" d="m 51.509766,208.58398 0,11.62696 0,-11.62696 z m -40.992188,8.85547 40.833984,0 -40.833984,0 z" style="opacity:0.2;fill:none;fill-rule:evenodd;stroke:none;stroke-width:1.15699995;stroke-linecap:butt;stroke-linejoin:miter;stroke-miterlimit:4;stroke-dasharray:none;stroke-opacity:1"/>
    <path id="path5728" d="m 41.509766,174.35742 0,22.98242 0,-22.98242 z m 9.910156,22.54297 0,1.96875 0,-1.96875 z m -10.31836,0.53906 10.25,0 -10.25,0 z" style="opacity:0.2;fill:none;fill-rule:evenodd;stroke:none;stroke-width:1.15699995;stroke-linecap:butt;stroke-linejoin:miter;stroke-miterlimit:4;stroke-dasharray:none;stroke-opacity:1"/>
    <path id="path5738" d="m 10.339551,155.91555 17.761203,0" style="opacity:0.2;fill:none;fill-opacity:1;fill-rule:evenodd;stroke:none;stroke-width:1.15699995;stroke-linecap:butt;stroke-linejoin:miter;stroke-miterlimit:4;stroke-dasharray:none;stroke-opacity:1"/>
    <path style="opacity:0.2;fill:none;fill-rule:evenodd;stroke:none;stroke-width:1.15699995;stroke-linecap:butt;stroke-linejoin:miter;stroke-miterlimit:4;stroke-dasharray:none;stroke-opacity:1" d="m 100.35068,104.06938 -4.47126,8.8531" id="path5740"/>
  </g>
  <text id="text10768" style="font-size: 10px; font-family: Helvetica; writing-mode: lr-tb; font-style: normal; font-stretch: normal; text-anchor: start; font-variant: normal; font-weight: normal; line-height: 125%; text-align: start; white-space: pre;" x="276.481" y="371.518"><tspan style="font-size: 10px; font-family: Helvetica; writing-mode: lr-tb; font-style: normal; font-stretch: normal; text-anchor: start; font-variant: normal; font-weight: normal; line-height: 125%; text-align: start; word-spacing: 0px;" id="tspan10770" font-size="10" y="371.518" x="276.481">GOCARD</tspan><tspan style="font-size: 10px; font-family: Helvetica; writing-mode: lr-tb; font-style: normal; font-stretch: normal; text-anchor: start; font-variant: normal; font-weight: normal; line-height: 125%; text-align: start; word-spacing: 0px;" id="tspan10772" font-size="10" y="383.518" x="274.493">STATION</tspan></text>
  <text style="font-size: 10px; font-family: Helvetica; writing-mode: lr; letter-spacing: 1px; text-anchor: start; line-height: 125%; font-stretch: normal; font-variant: normal; text-align: start; font-weight: normal; font-style: normal; fill: rgb(99, 100, 102); white-space: pre;" id="text10763" letter-spacing="1" font-size="10" x="403.77" y="501.099">CENTERS &amp; INSTITUTES</text>
  <text id="text10582" x="17.88" y="472.591" style="font-size: 10px; writing-mode: lr; font-family: Helvetica; text-anchor: start; line-height: 125%; font-stretch: normal; font-variant: normal; font-weight: normal; font-style: normal; text-align: start; white-space: pre;"><tspan style="font-size: 10px; font-weight: normal; writing-mode: lr; line-height: 125%; font-stretch: normal; text-anchor: start; font-variant: normal; font-family: Helvetica; font-style: normal; text-align: start; word-spacing: 0px;" id="tspan10584" font-size="10" y="472.591" x="17.88">COMPUTER</tspan><tspan style="font-size: 10px; font-weight: normal; writing-mode: lr; line-height: 125%; font-stretch: normal; text-anchor: start; font-variant: normal; font-family: Helvetica; font-style: normal; text-align: start; word-spacing: 0px;" id="tspan10586" font-size="10" y="484.591" x="17.88">LAB</tspan></text>
  <text style="font-size: 10px; font-weight: normal; writing-mode: lr; line-height: 125%; font-stretch: normal; text-anchor: start; font-variant: normal; font-family: Helvetica; font-style: normal; text-align: start; white-space: pre;" id="text10610" font-size="10" x="273.422" y="423.718">ATRIUM</text>
  <text id="text10614" transform="matrix(0.162193, -0.986759, 0.986759, 0.162193, 0, 0)" x="-441.345" y="277.629" style="font-size: 10px; writing-mode: lr; font-family: Helvetica; text-anchor: start; line-height: 125%; font-stretch: normal; font-variant: normal; font-weight: normal; font-style: normal; text-align: start; white-space: pre;"><tspan style="font-size: 10px; font-weight: normal; writing-mode: lr; line-height: 125%; font-stretch: normal; text-anchor: start; font-variant: normal; font-family: Helvetica; font-style: normal; text-align: start; word-spacing: 0px;" id="tspan10616" font-size="10" y="277.629" x="-441.345">E</tspan><tspan style="font-size: 10px; font-weight: normal; writing-mode: lr; line-height: 125%; font-stretch: normal; text-anchor: start; font-variant: normal; font-family: Helvetica; font-style: normal; text-align: start; word-spacing: 0px;" id="tspan10618" rotate="4.402" font-size="10" y="277.725" x="-433.872">L</tspan><tspan style="font-size: 10px; font-weight: normal; writing-mode: lr; line-height: 125%; font-stretch: normal; text-anchor: start; font-variant: normal; font-family: Helvetica; font-style: normal; text-align: start; word-spacing: 0px;" id="tspan10620" rotate="7.9450002" font-size="10" y="278.305" x="-427.047">E</tspan><tspan style="font-size: 10px; font-weight: normal; writing-mode: lr; line-height: 125%; font-stretch: normal; text-anchor: start; font-variant: normal; font-family: Helvetica; font-style: normal; text-align: start; word-spacing: 0px;" id="tspan10622" rotate="11.285" font-size="10" y="279.397" x="-419.61">V</tspan><tspan style="font-size: 10px; font-weight: normal; writing-mode: lr; line-height: 125%; font-stretch: normal; text-anchor: start; font-variant: normal; font-family: Helvetica; font-style: normal; text-align: start; word-spacing: 0px;" id="tspan10624" rotate="14.543" font-size="10" y="280.989" x="-411.911">A</tspan><tspan style="font-size: 10px; font-weight: normal; writing-mode: lr; line-height: 125%; font-stretch: normal; text-anchor: start; font-variant: normal; font-family: Helvetica; font-style: normal; text-align: start; word-spacing: 0px;" id="tspan10626" rotate="17.900999" font-size="10" y="283.026" x="-404.282">T</tspan><tspan style="font-size: 10px; font-weight: normal; writing-mode: lr; line-height: 125%; font-stretch: normal; text-anchor: start; font-variant: normal; font-family: Helvetica; font-style: normal; text-align: start; word-spacing: 0px;" id="tspan10628" rotate="21.995001" font-size="10" y="285.431" x="-396.95">O</tspan><tspan style="font-size: 10px; font-weight: normal; writing-mode: lr; line-height: 125%; font-stretch: normal; text-anchor: start; font-variant: normal; font-family: Helvetica; font-style: normal; text-align: start; word-spacing: 0px;" id="tspan10630" rotate="27.365999" font-size="10" y="288.843" x="-388.725">R</tspan><tspan style="font-size: 10px; font-weight: normal; writing-mode: lr; line-height: 125%; font-stretch: normal; text-anchor: start; font-variant: normal; font-family: Helvetica; font-style: normal; text-align: start; word-spacing: 0px;" id="tspan10632" rotate="34.558998" font-size="10" y="292.607" x="-381.663">S</tspan></text>
  <text y="526.3" x="150.086" font-size="10" id="text6064" style="font-style: normal; font-variant: normal; font-weight: normal; font-stretch: normal; font-size: 10px; line-height: 125%; font-family: Helvetica; text-align: start; writing-mode: lr-tb; text-anchor: start; white-space: pre;"><tspan y="526.3" x="150.086" id="tspan6066" style="font-size: 10px; word-spacing: 0px;">304</tspan></text>
  <text style="font-style: normal; font-variant: normal; font-weight: normal; font-stretch: normal; font-size: 10px; line-height: 125%; font-family: Helvetica; text-align: start; writing-mode: lr; text-anchor: start; white-space: pre;" id="text6514" font-size="10" x="14.086" y="526.3"><tspan id="tspan6518" style="font-size: 10px; word-spacing: 0px;">305</tspan></text>
  <text style="font-size: 10px; font-family: Helvetica; writing-mode: lr; letter-spacing: 2px; text-anchor: start; line-height: 125%; font-stretch: normal; font-variant: normal; font-weight: normal; font-style: normal; text-align: start; white-space: pre;" id="text10688" letter-spacing="2" font-size="10" x="155.62" y="502.063">WEST</text>
  <text id="text10756" x="431.32321" y="383.69919" style="font-size: 10px; writing-mode: lr; font-family: Helvetica; text-anchor: start; line-height: 125%; font-stretch: normal; font-variant: normal; font-weight: normal; font-style: normal; text-align: start; white-space: pre;"><tspan style="font-size:10px;font-weight:normal;writing-mode:lr;-inkscape-font-specification:Helvetica;line-height:125%;font-stretch:normal;text-anchor:start;font-variant:normal;font-family:Helvetica;font-style:normal;text-align:start" id="tspan10758" font-size="10" y="383.69919" x="431.32321">CONGRESSIONAL </tspan><tspan style="font-size:10px;font-weight:normal;writing-mode:lr;-inkscape-font-specification:Helvetica;line-height:125%;font-stretch:normal;text-anchor:start;font-variant:normal;font-family:Helvetica;font-style:normal;text-align:start" id="tspan10760" font-size="10" y="395.69919" x="420.69321">HEARINGS &amp; REPORTS</tspan></text>
  <text id="text11221" x="351.4639" y="316.97849" style="font-size: 10px; writing-mode: lr; font-family: Helvetica; text-anchor: start; line-height: 125%; font-stretch: normal; font-variant: normal; font-weight: normal; font-style: normal; text-align: start; white-space: pre;"><tspan style="font-size:10px;font-weight:normal;writing-mode:lr;-inkscape-font-specification:Helvetica;line-height:125%;font-stretch:normal;text-anchor:start;font-variant:normal;font-family:Helvetica;font-style:normal;text-align:start" id="tspan11223" font-size="10" y="316.97849" x="351.4639">READING ROOM</tspan><tspan style="font-size:10px;font-weight:normal;writing-mode:lr;-inkscape-font-specification:Helvetica;line-height:125%;font-stretch:normal;text-anchor:start;font-variant:normal;font-family:Helvetica;font-style:normal;text-align:start" id="tspan11225" font-size="10" y="328.97849" x="361.30289">MEZZANINE</tspan></text>
  <text id="text10750" x="215.9082" y="292.08591" style="font-size: 10px; writing-mode: lr; font-family: Helvetica; text-anchor: start; line-height: 125%; font-stretch: normal; font-variant: normal; font-weight: normal; font-style: normal; text-align: start; white-space: pre;"><tspan style="font-size:10px;font-weight:normal;writing-mode:lr;-inkscape-font-specification:Helvetica;line-height:125%;font-stretch:normal;text-anchor:start;font-variant:normal;font-family:Helvetica;font-style:normal;text-align:start" id="tspan10752" font-size="10" y="292.08591" x="215.9082">CONGRESSIONAL</tspan><tspan style="font-size:10px;font-weight:normal;writing-mode:lr;-inkscape-font-specification:Helvetica;line-height:125%;font-stretch:normal;text-anchor:start;font-variant:normal;font-family:Helvetica;font-style:normal;text-align:start" id="tspan10754" font-size="10" y="304.08591" x="235.8862">RECORD</tspan></text>
  <text style="font-size: 10px; font-family: Helvetica; writing-mode: lr-tb; font-style: normal; font-stretch: normal; text-anchor: start; font-variant: normal; font-weight: normal; line-height: 125%; text-align: start; white-space: pre;" id="text10645" font-size="10" x="159.83601" y="207.70604"><tspan id="tspan8797" x="159.83601" y="207.70604">KZ 171</tspan></text>
  <text style="font-size: 10px; font-family: Helvetica; writing-mode: lr; font-style: normal; font-stretch: normal; text-anchor: start; font-variant: normal; font-weight: normal; line-height: 125%; text-align: start; white-space: pre;" id="text10732" font-size="10" x="60.016602" y="375.92871"><tspan id="tspan14642" x="60.016602" y="375.92871">NA 9053</tspan></text>
  <text style="font-size: 10px; font-weight: normal; writing-mode: lr; line-height: 125%; font-stretch: normal; text-anchor: start; font-variant: normal; font-family: Helvetica; font-style: normal; text-align: start; white-space: pre;" id="text10588" font-size="10" x="60.016602" y="287.10739"><tspan id="tspan8805">KZ 631</tspan></text>
  <text style="font-size: 10px; font-weight: normal; writing-mode: lr; line-height: 125%; font-stretch: normal; text-anchor: start; font-variant: normal; font-family: Helvetica; font-style: normal; text-align: start; white-space: pre;" id="text10592" font-size="10" x="60.016602" y="451.9043"><tspan id="tspan14644">ZA 9999</tspan></text>
  <text y="167.64355" x="201.3293" font-size="10" id="text8799" style="font-size: 10px; font-family: Helvetica; writing-mode: lr; font-style: normal; font-stretch: normal; text-anchor: start; font-variant: normal; font-weight: normal; line-height: 125%; text-align: start; white-space: pre;"><tspan id="tspan8803">KZ 631</tspan></text>
  <text y="257.28119" x="98.224846" font-size="10" id="text6073" style="font-style: normal; font-variant: normal; font-weight: normal; font-stretch: normal; font-size: 10px; line-height: 125%; font-family: Helvetica; text-align: start; writing-mode: lr-tb; text-anchor: start; white-space: pre;"><tspan y="257.28119" x="98.224846" id="tspan6077">322A</tspan></text>
  <text style="font-style: normal; font-variant: normal; font-weight: normal; font-stretch: normal; font-size: 10px; line-height: 125%; font-family: Helvetica; text-align: start; writing-mode: lr; text-anchor: start; white-space: pre;" id="text6514-4" font-size="10" x="101.91743" y="122.38647"><tspan id="tspan5676">321</tspan></text>
  <text transform="matrix(0,-1,1,0,0,0)" style="font-style: normal; font-variant: normal; font-weight: normal; font-stretch: normal; font-size: 10px; line-height: 125%; font-family: Helvetica; text-align: start; writing-mode: lr-tb; text-anchor: start; white-space: pre;" y="23.835709" x="-345.31802" id="text5678"><tspan y="23.835709" x="-345.31802" id="tspan5684">CARRELS</tspan></text>
  <use width="11.14799976348877" height="10.289999961853027" transform="matrix(0.9956937432289124, 0, 0, 1.000972032546997, 71.5, 493.20001220703125)" xlink:href="#printer"/>
  <use width="12.86199951171875" height="11.145999908447266" transform="matrix(1.0029540061950684, 0, 0, 0.995872974395752, 70.69999694824219, 515.7000122070312)" xlink:href="#computer"/>
  <use width="12.86199951171875" height="11.145999908447266" transform="matrix(1.0029540061950684, 0, 0, 0.995872974395752, 17.200000762939453, 431.8999938964844)" xlink:href="#computer"/>
  <use width="12.86199951171875" height="11.145999908447266" transform="matrix(1.0029540061950684, 0, 0, 0.995872974395752, 17.200000762939453, 387.5)" xlink:href="#computer"/>
  <use width="12.005000114440918" height="8.574999809265137" transform="matrix(1, 0, 0, 1, 103.5999984741211, 238.39999389648438)" xlink:href="#screen"/>
  <use width="11.14799976348877" height="10.289999961853027" transform="matrix(0.9956937432289124, 0, 0, 1.000972032546997, 268.79998779296875, 350.1000061035156)" xlink:href="#printer"/>
  <use width="39.40629959106445" height="26.7593994140625" transform="matrix(0.9998400211334229, 0, 0, 0.9977800250053406, 211.8000030517578, 336)" xlink:href="#womensroom"/>
  <use width="22.203100204467773" height="26.7593994140625" transform="matrix(0.9998602271080017, 0, 0, 0.9977800250053406, 180.5, 360)" xlink:href="#mensroom"/>
  <g style="visibility: hidden;">
    <title>Emergency Exits</title>
    <use width="64.32499694824219" height="34.178001403808594" transform="matrix(0.9626569747924805, 0, 0, 0.9626569747924805, 171.11761474609375, 226.7028350830078)" xlink:href="#emergency-exit"/>
    <use width="64.32499694824219" height="34.178001403808594" transform="matrix(0.9626569747924805, 0, 0, 0.9626569747924805, 527.4437255859375, 379.6186828613281)" xlink:href="#emergency-exit"/>
    <use width="64.32499694824219" height="34.178001403808594" transform="matrix(0.9626569747924805, 0, 0, 0.9626569747924805, 52.838623046875, 447.0648498535156)" xlink:href="#emergency-exit"/>
  </g>
</svg>